<svg id="Layer_1" data-name="Layer 1" xmlns="http://www.w3.org/2000/svg" xmlns:xlink="http://www.w3.org/1999/xlink" viewBox="0 0 355 189.11"><defs><style>.cls-1{fill:url(#linear-gradient);}.cls-2{fill:#fff;}</style><linearGradient id="linear-gradient" x1="40.38" y1="231.33" x2="314.96" y2="-43.24" gradientUnits="userSpaceOnUse"><stop offset="0.01" stop-color="#d98a25"/><stop offset="1" stop-color="#f99e36"/></linearGradient></defs><title>AWS Architect_Large</title><rect class="cls-1" x="-1.6" y="-1.26" width="358.53" height="190.62"/><path class="cls-2" d="M92.46,82.86a.44.44,0,0,1-.16,0l-8.61-3a.5.5,0,0,1-.33-.45l-.13-12.52a.44.44,0,0,1,.18-.38.49.49,0,0,1,.42-.1l8.75,2.14A.49.49,0,0,1,93,69V82.37a.49.49,0,0,1-.21.4A.47.47,0,0,1,92.46,82.86ZM84.34,79,92,81.68V69.36l-7.76-1.9Z"/><path class="cls-2" d="M94.82,82.71a.52.52,0,0,1-.29-.09.5.5,0,0,1-.2-.39l-.17-13.12a.48.48,0,0,1,.35-.48l8.92-2.51a.52.52,0,0,1,.43.08.49.49,0,0,1,.19.39V79.35a.51.51,0,0,1-.34.47L95,82.69Zm.32-13.24.16,12.08L103.07,79V67.24Z"/><polygon class="cls-2" points="93.48 62.99 85.39 65.54 93.7 67.71 101.89 65.32 93.48 62.99"/><path class="cls-2" d="M70.52,82.86a.44.44,0,0,1-.16,0l-8.61-3a.47.47,0,0,1-.32-.45l-.14-12.52a.46.46,0,0,1,.18-.38.49.49,0,0,1,.42-.1l8.75,2.14A.49.49,0,0,1,71,69V82.37a.49.49,0,0,1-.21.4A.47.47,0,0,1,70.52,82.86ZM62.4,79,70,81.68V69.36l-7.76-1.9Z"/><path class="cls-2" d="M72.88,82.71a.52.52,0,0,1-.29-.09.5.5,0,0,1-.2-.39l-.17-13.12a.5.5,0,0,1,.35-.48l8.92-2.51a.51.51,0,0,1,.43.08.49.49,0,0,1,.19.39V79.35a.5.5,0,0,1-.33.47L73,82.69Zm.32-13.24.16,12.08L81.13,79V67.24Z"/><polygon class="cls-2" points="71.54 62.99 63.45 65.54 71.76 67.71 79.95 65.32 71.54 62.99"/><path class="cls-2" d="M103.39,101.1a.45.45,0,0,1-.16,0l-8.61-3a.49.49,0,0,1-.32-.46l-.14-12.51a.48.48,0,0,1,.18-.39.49.49,0,0,1,.42-.09l8.75,2.14a.48.48,0,0,1,.37.47v13.4a.49.49,0,0,1-.21.4A.47.47,0,0,1,103.39,101.1Zm-8.12-3.86,7.63,2.68V87.6l-7.76-1.9Z"/><path class="cls-2" d="M105.75,100.94a.52.52,0,0,1-.29-.09.46.46,0,0,1-.2-.39l-.17-13.12a.47.47,0,0,1,.35-.47l8.92-2.52a.48.48,0,0,1,.62.47V97.58a.48.48,0,0,1-.34.47l-8.74,2.87A.39.39,0,0,1,105.75,100.94Zm.32-13.23.16,12.07L114,97.23V85.47Z"/><polygon class="cls-2" points="104.41 81.23 96.32 83.77 104.63 85.94 112.82 83.55 104.41 81.23"/><path class="cls-2" d="M125.41,101.1a.41.41,0,0,1-.16,0l-8.61-3a.48.48,0,0,1-.33-.46l-.14-12.51a.49.49,0,0,1,.19-.39.49.49,0,0,1,.42-.09l8.74,2.14a.49.49,0,0,1,.38.47v13.4a.49.49,0,0,1-.21.4A.47.47,0,0,1,125.41,101.1Zm-8.12-3.86,7.63,2.68V87.6l-7.76-1.9Z"/><path class="cls-2" d="M127.76,100.94a.47.47,0,0,1-.28-.09.5.5,0,0,1-.21-.39l-.17-13.12a.49.49,0,0,1,.36-.47l8.92-2.52a.49.49,0,0,1,.62.47V97.58a.5.5,0,0,1-.34.47l-8.74,2.87A.44.44,0,0,1,127.76,100.94Zm.33-13.23.15,12.07L136,97.23V85.47Z"/><polygon class="cls-2" points="126.43 81.23 118.34 83.77 126.65 85.94 134.83 83.55 126.43 81.23"/><path class="cls-2" d="M114.31,119.33a.51.51,0,0,1-.17,0l-8.6-3a.48.48,0,0,1-.33-.46l-.14-12.51a.49.49,0,0,1,.61-.48l8.74,2.14a.49.49,0,0,1,.38.48v13.39a.49.49,0,0,1-.49.49Zm-8.12-3.86,7.63,2.68V105.83l-7.76-1.9Z"/><path class="cls-2" d="M116.66,119.18a.42.42,0,0,1-.28-.1.5.5,0,0,1-.21-.39L116,105.58a.5.5,0,0,1,.36-.48l8.92-2.51a.49.49,0,0,1,.62.47v12.76a.48.48,0,0,1-.34.46l-8.74,2.87A.45.45,0,0,1,116.66,119.18Zm.33-13.24.15,12.07,7.78-2.55V103.7Z"/><polygon class="cls-2" points="115.33 99.46 107.24 102 115.55 104.17 123.73 101.79 115.33 99.46"/><path class="cls-2" d="M21.33,94.15A26.13,26.13,0,0,1,55.87,69.38,31.6,31.6,0,0,1,116.24,68a23.56,23.56,0,0,1,32.44,16.42,18.24,18.24,0,0,1,18.78,11,18.09,18.09,0,0,0-18.13-16.82,18.33,18.33,0,0,0-2,.11A23.53,23.53,0,0,0,114.91,62.3a31.6,31.6,0,0,0-60.37,1.35,26.12,26.12,0,0,0-33,33.5A27,27,0,0,1,21.33,94.15Z"/><path class="cls-2" d="M146.27,147.23h-3.42a1.51,1.51,0,0,1-.93-.27,1.7,1.7,0,0,1-.53-.68L140.27,143H133l-1.12,3.31a1.56,1.56,0,0,1-.51.66,1.49,1.49,0,0,1-.92.29h-3.44l7.35-19h4.51Zm-7-7.26-1.76-5.21c-.13-.33-.27-.72-.41-1.16s-.3-.94-.45-1.46c-.13.53-.27,1-.41,1.48s-.29.84-.42,1.17L134.06,140Z"/><path class="cls-2" d="M172.29,128.23l-5.87,19h-4l-3.57-11.78a6.1,6.1,0,0,1-.19-.6c-.06-.22-.13-.46-.19-.7-.06.24-.12.48-.18.7s-.13.42-.19.6l-3.63,11.78h-4l-5.87-19h3.71a1.66,1.66,0,0,1,.95.26,1.24,1.24,0,0,1,.51.69l2.6,9.91c.08.32.16.66.24,1s.16.75.23,1.15a14.87,14.87,0,0,1,.58-2.18l3.07-9.91a1.41,1.41,0,0,1,.51-.66,1.49,1.49,0,0,1,.93-.29h1.3a1.49,1.49,0,0,1,.93.27,1.7,1.7,0,0,1,.53.68l3,9.91a13.73,13.73,0,0,1,.58,2.08c.07-.4.14-.76.21-1.11s.15-.66.23-1l2.61-9.91a1.23,1.23,0,0,1,.49-.66,1.59,1.59,0,0,1,.94-.29Z"/><path class="cls-2" d="M184.4,132.09a1.49,1.49,0,0,1-.41.47.94.94,0,0,1-.55.16,1.45,1.45,0,0,1-.65-.19l-.78-.43a7.35,7.35,0,0,0-1-.42,3.85,3.85,0,0,0-1.27-.19,2.76,2.76,0,0,0-1.85.53,1.81,1.81,0,0,0-.61,1.43,1.33,1.33,0,0,0,.37,1,3.05,3.05,0,0,0,1,.65,10.4,10.4,0,0,0,1.35.5q.76.22,1.56.51a15.18,15.18,0,0,1,1.56.66,5.23,5.23,0,0,1,1.36,1,4.64,4.64,0,0,1,.95,1.43,5,5,0,0,1,.37,2,6.45,6.45,0,0,1-.46,2.46,5.67,5.67,0,0,1-1.32,2,6.19,6.19,0,0,1-2.14,1.34,8.14,8.14,0,0,1-2.89.49,9.31,9.31,0,0,1-1.8-.18,11.43,11.43,0,0,1-1.78-.52,9.36,9.36,0,0,1-1.62-.79,6.81,6.81,0,0,1-1.32-1l1.31-2.06a1.34,1.34,0,0,1,.41-.37,1.06,1.06,0,0,1,.55-.15,1.44,1.44,0,0,1,.79.25l.9.55a7.85,7.85,0,0,0,1.16.55,4.39,4.39,0,0,0,1.53.24,3,3,0,0,0,1.87-.52,2,2,0,0,0,.66-1.68,1.6,1.6,0,0,0-.36-1.08,2.79,2.79,0,0,0-1-.69,8.48,8.48,0,0,0-1.35-.49c-.5-.13-1-.29-1.55-.46a10.94,10.94,0,0,1-1.55-.63,4.64,4.64,0,0,1-1.35-1,4.49,4.49,0,0,1-1-1.52,6,6,0,0,1-.37-2.23,5.47,5.47,0,0,1,.43-2.09,5.36,5.36,0,0,1,1.27-1.81,6.3,6.3,0,0,1,2-1.27,7.44,7.44,0,0,1,2.77-.48,10.66,10.66,0,0,1,1.71.14,9.75,9.75,0,0,1,1.57.4,10.36,10.36,0,0,1,1.39.64,6.67,6.67,0,0,1,1.15.84Z"/><path class="cls-2" d="M210.53,147.23h-3.41a1.49,1.49,0,0,1-.93-.27,1.7,1.7,0,0,1-.53-.68L204.53,143h-7.22l-1.12,3.31a1.74,1.74,0,0,1-.51.66,1.49,1.49,0,0,1-.92.29h-3.45l7.36-19h4.51Zm-7-7.26-1.76-5.21c-.13-.33-.27-.72-.42-1.16s-.29-.94-.44-1.46c-.13.53-.27,1-.42,1.48s-.28.84-.41,1.17L198.33,140Z"/><path class="cls-2" d="M227.57,147.23h-4a1.71,1.71,0,0,1-1.59-.84l-3.15-5.51a1.47,1.47,0,0,0-.5-.52,1.62,1.62,0,0,0-.78-.16h-1.12v7H212v-19h6.18a12.4,12.4,0,0,1,3.52.43,6.42,6.42,0,0,1,2.37,1.18,4.45,4.45,0,0,1,1.34,1.78,6.11,6.11,0,0,1,.41,2.24,6.22,6.22,0,0,1-.24,1.75,5.47,5.47,0,0,1-.73,1.52,5.67,5.67,0,0,1-1.2,1.25,6.38,6.38,0,0,1-1.63.89,4.28,4.28,0,0,1,.8.56,3.49,3.49,0,0,1,.68.79Zm-9.36-10.07a4.32,4.32,0,0,0,1.53-.23,2.69,2.69,0,0,0,1-.63,2.38,2.38,0,0,0,.59-.94,3.68,3.68,0,0,0,.18-1.17,2.47,2.47,0,0,0-.81-2,3.82,3.82,0,0,0-2.53-.7h-1.77v5.63Z"/><path class="cls-2" d="M241.64,142.31a.91.91,0,0,1,.32.06,1,1,0,0,1,.3.2l1.74,1.84a7.24,7.24,0,0,1-2.87,2.27,10.22,10.22,0,0,1-4.09.76,9.76,9.76,0,0,1-3.88-.74,8.52,8.52,0,0,1-2.91-2,9.13,9.13,0,0,1-1.83-3.08,11.55,11.55,0,0,1-.64-3.87,10.73,10.73,0,0,1,.69-3.9,9,9,0,0,1,1.95-3.07,8.7,8.7,0,0,1,3-2,10,10,0,0,1,3.84-.72,10.74,10.74,0,0,1,2,.19,10.06,10.06,0,0,1,1.76.52,8.14,8.14,0,0,1,1.52.81,7.71,7.71,0,0,1,1.22,1l-1.48,2a2.13,2.13,0,0,1-.34.33.9.9,0,0,1-.55.15.92.92,0,0,1-.44-.1c-.14-.07-.29-.16-.45-.26l-.51-.32a3.8,3.8,0,0,0-.67-.33,5.16,5.16,0,0,0-.9-.26,6.91,6.91,0,0,0-1.2-.1,5,5,0,0,0-2,.4,4.43,4.43,0,0,0-1.57,1.18,5.53,5.53,0,0,0-1,1.91,8.44,8.44,0,0,0-.36,2.57,8,8,0,0,0,.4,2.6,6,6,0,0,0,1.08,1.91,4.59,4.59,0,0,0,1.6,1.18,4.77,4.77,0,0,0,2,.4,9.06,9.06,0,0,0,1.09-.06,4.51,4.51,0,0,0,.93-.19,3.31,3.31,0,0,0,.81-.37,4.7,4.7,0,0,0,.77-.58,1.3,1.3,0,0,1,.34-.21A.81.81,0,0,1,241.64,142.31Z"/><path class="cls-2" d="M262.52,128.23v19h-4.44v-8h-7.71v8h-4.44v-19h4.44v7.94h7.71v-7.94Z"/><path class="cls-2" d="M270.63,147.23H266.2v-19h4.43Z"/><path class="cls-2" d="M288,131.73h-5.35v15.5H278.2v-15.5h-5.34v-3.5H288Z"/><path class="cls-2" d="M294.62,131.62v4.44h6v3.25h-6v4.53h7.8v3.39H290.19v-19h12.23v3.39Z"/><path class="cls-2" d="M317.54,142.31a.81.81,0,0,1,.31.06.83.83,0,0,1,.3.2l1.75,1.84a7.24,7.24,0,0,1-2.87,2.27,10.26,10.26,0,0,1-4.09.76,9.73,9.73,0,0,1-3.88-.74,8.52,8.52,0,0,1-2.91-2,9,9,0,0,1-1.83-3.08,11.31,11.31,0,0,1-.64-3.87,10.73,10.73,0,0,1,.69-3.9,9.08,9.08,0,0,1,1.94-3.07,8.89,8.89,0,0,1,3-2,10,10,0,0,1,3.85-.72,10.72,10.72,0,0,1,2,.19,10.43,10.43,0,0,1,1.77.52,8.05,8.05,0,0,1,1.51.81,8.28,8.28,0,0,1,1.23,1l-1.49,2a1.78,1.78,0,0,1-.34.33.87.87,0,0,1-.54.15,1,1,0,0,1-.45-.1c-.14-.07-.28-.16-.44-.26l-.52-.32a3.38,3.38,0,0,0-.66-.33,5.73,5.73,0,0,0-.9-.26,7,7,0,0,0-1.21-.1,5,5,0,0,0-2,.4,4.48,4.48,0,0,0-1.56,1.18,5.53,5.53,0,0,0-1,1.91,8.44,8.44,0,0,0-.36,2.57,7.72,7.72,0,0,0,.4,2.6,5.81,5.81,0,0,0,1.08,1.91,4.59,4.59,0,0,0,1.6,1.18,4.77,4.77,0,0,0,2,.4,9.18,9.18,0,0,0,1.09-.06,4.51,4.51,0,0,0,.93-.19,3.42,3.42,0,0,0,.8-.37,4.31,4.31,0,0,0,.77-.58,1.73,1.73,0,0,1,.34-.21A.85.85,0,0,1,317.54,142.31Z"/><path class="cls-2" d="M335.48,131.73h-5.34v15.5h-4.41v-15.5h-5.35v-3.5h15.1Z"/><path class="cls-2" d="M133.63,166.86a.64.64,0,0,1,.2,0,.63.63,0,0,1,.2.13l1.12,1.19a4.72,4.72,0,0,1-1.85,1.46,6.6,6.6,0,0,1-2.63.49,6.19,6.19,0,0,1-2.5-.48,5.35,5.35,0,0,1-1.88-1.31,5.77,5.77,0,0,1-1.17-2,7.15,7.15,0,0,1-.42-2.49,6.88,6.88,0,0,1,.45-2.52,5.82,5.82,0,0,1,1.25-2,5.62,5.62,0,0,1,1.93-1.3,6.44,6.44,0,0,1,2.48-.46,6.75,6.75,0,0,1,1.3.12,6,6,0,0,1,1.14.34,5,5,0,0,1,1.76,1.17l-1,1.28a1.14,1.14,0,0,1-.22.22.58.58,0,0,1-.35.1.64.64,0,0,1-.28-.07,3.09,3.09,0,0,1-.29-.17l-.33-.21a4.34,4.34,0,0,0-.43-.21,3.7,3.7,0,0,0-.58-.16,4.34,4.34,0,0,0-.78-.07,3.2,3.2,0,0,0-1.29.26,2.86,2.86,0,0,0-1,.76,3.46,3.46,0,0,0-.66,1.23,5.6,5.6,0,0,0-.23,1.66,5,5,0,0,0,.26,1.67,3.65,3.65,0,0,0,.69,1.23,2.91,2.91,0,0,0,1,.76,3,3,0,0,0,1.26.26,5.23,5.23,0,0,0,.71,0,2.68,2.68,0,0,0,.59-.12,2.25,2.25,0,0,0,.52-.24,2.68,2.68,0,0,0,.5-.37,1,1,0,0,1,.22-.14A.52.52,0,0,1,133.63,166.86Z"/><path class="cls-2" d="M139.25,160v2.85h3.85v2.1h-3.85v2.92h5V170H136.4V157.78h7.87V160Z"/><path class="cls-2" d="M156,170h-2.57a1.09,1.09,0,0,1-1-.54l-2-3.55a1.12,1.12,0,0,0-.32-.33,1,1,0,0,0-.51-.1h-.72V170H146V157.78h4a8.28,8.28,0,0,1,2.27.28,4.22,4.22,0,0,1,1.53.76,2.91,2.91,0,0,1,.86,1.15,3.77,3.77,0,0,1,.27,1.44,4.11,4.11,0,0,1-.16,1.13,3.46,3.46,0,0,1-1.24,1.78,4.31,4.31,0,0,1-1.06.58,2,2,0,0,1,.52.36,2.36,2.36,0,0,1,.44.5Zm-6-6.48a2.87,2.87,0,0,0,1-.15,1.73,1.73,0,0,0,.67-.41,1.54,1.54,0,0,0,.38-.61,2.27,2.27,0,0,0,.11-.75,1.59,1.59,0,0,0-.52-1.26,2.46,2.46,0,0,0-1.63-.45h-1.14v3.63Z"/><path class="cls-2" d="M165.62,160h-3.45v10h-2.83V160h-3.45v-2.26h9.73Z"/><path class="cls-2" d="M169.91,170h-2.85V157.78h2.85Z"/><path class="cls-2" d="M175.14,160v3.1h4.18v2.19h-4.18V170h-2.86V157.78h7.88V160Z"/><path class="cls-2" d="M184.65,170H181.8V157.78h2.85Z"/><path class="cls-2" d="M195.27,166.86a.64.64,0,0,1,.2,0,.76.76,0,0,1,.2.13l1.12,1.19a4.72,4.72,0,0,1-1.85,1.46,6.6,6.6,0,0,1-2.63.49,6.19,6.19,0,0,1-2.5-.48,5.35,5.35,0,0,1-1.88-1.31,6,6,0,0,1-1.18-2,7.39,7.39,0,0,1-.41-2.49,6.88,6.88,0,0,1,.45-2.52,5.69,5.69,0,0,1,3.18-3.27,6.44,6.44,0,0,1,2.48-.46,6.75,6.75,0,0,1,1.3.12,5.71,5.71,0,0,1,1.13.34,5,5,0,0,1,1,.51,5.21,5.21,0,0,1,.79.66l-1,1.28a1.14,1.14,0,0,1-.22.22.58.58,0,0,1-.35.1.73.73,0,0,1-.29-.07l-.28-.17-.33-.21a4.34,4.34,0,0,0-.43-.21,3.7,3.7,0,0,0-.58-.16,4.34,4.34,0,0,0-.78-.07,3.2,3.2,0,0,0-1.29.26,3,3,0,0,0-1,.76,3.61,3.61,0,0,0-.65,1.23,5.29,5.29,0,0,0-.23,1.66,5.06,5.06,0,0,0,.25,1.67,3.67,3.67,0,0,0,.7,1.23,2.91,2.91,0,0,0,1,.76,3,3,0,0,0,1.26.26,5.23,5.23,0,0,0,.71,0,2.68,2.68,0,0,0,.59-.12,2.25,2.25,0,0,0,.52-.24,2.68,2.68,0,0,0,.5-.37,1,1,0,0,1,.22-.14A.52.52,0,0,1,195.27,166.86Z"/><path class="cls-2" d="M209,170h-2.2a.92.92,0,0,1-.59-.17,1,1,0,0,1-.35-.44l-.72-2.13h-4.66l-.72,2.13a.94.94,0,0,1-.33.42.91.91,0,0,1-.59.19h-2.22l4.74-12.24h2.91Zm-4.51-4.68L203.37,162a7.78,7.78,0,0,1-.27-.75c-.1-.29-.19-.6-.29-.94a9.11,9.11,0,0,1-.27.95c-.09.29-.18.55-.26.76l-1.13,3.33Z"/><path class="cls-2" d="M217.58,160h-3.44v10H211.3V160h-3.45v-2.26h9.73Z"/><path class="cls-2" d="M221.87,170H219V157.78h2.85Z"/><path class="cls-2" d="M236.25,163.9a6.69,6.69,0,0,1-.45,2.47,6.21,6.21,0,0,1-1.29,2,6.06,6.06,0,0,1-2,1.32,7.28,7.28,0,0,1-5.2,0,6,6,0,0,1-2-1.32,6.07,6.07,0,0,1-1.3-2,7,7,0,0,1,0-4.94,5.88,5.88,0,0,1,3.31-3.3,7.28,7.28,0,0,1,5.2,0,5.88,5.88,0,0,1,3.3,3.31A6.64,6.64,0,0,1,236.25,163.9Zm-2.9,0a5.24,5.24,0,0,0-.24-1.64,3.48,3.48,0,0,0-.67-1.23,3.09,3.09,0,0,0-1.08-.77,4.08,4.08,0,0,0-2.92,0,3,3,0,0,0-1.09.77,3.48,3.48,0,0,0-.67,1.23,5.72,5.72,0,0,0,0,3.28,3.31,3.31,0,0,0,.67,1.23,2.92,2.92,0,0,0,1.09.77,4.08,4.08,0,0,0,2.92,0,3,3,0,0,0,1.08-.77,3.31,3.31,0,0,0,.67-1.23A5.19,5.19,0,0,0,233.35,163.9Z"/><path class="cls-2" d="M248.61,157.78V170h-1.48a1.29,1.29,0,0,1-.55-.1,1.31,1.31,0,0,1-.44-.37l-5.77-7.3c0,.22,0,.43,0,.64s0,.39,0,.57V170h-2.5V157.78h1.49l.31,0a.77.77,0,0,1,.23.06.8.8,0,0,1,.19.13l.21.23,5.82,7.35c0-.23-.05-.46-.06-.68s0-.43,0-.63v-6.48Z"/><path class="cls-2" d="M263.14,160H259.7v10h-2.84V160h-3.45v-2.26h9.73Z"/><path class="cls-2" d="M274.59,170H272a1.1,1.1,0,0,1-1-.54l-2-3.55a.92.92,0,0,0-.32-.33,1,1,0,0,0-.5-.1h-.72V170h-2.84V157.78h4a8.2,8.2,0,0,1,2.26.28,4.06,4.06,0,0,1,1.53.76,2.82,2.82,0,0,1,.86,1.15,4,4,0,0,1,.11,2.57,3.28,3.28,0,0,1-.47,1,3.64,3.64,0,0,1-.77.8,4.07,4.07,0,0,1-1.05.58,2.21,2.21,0,0,1,.52.36,2.67,2.67,0,0,1,.44.5Zm-6-6.48a2.9,2.9,0,0,0,1-.15,1.69,1.69,0,0,0,.66-.41,1.44,1.44,0,0,0,.38-.61,2.27,2.27,0,0,0,.12-.75,1.6,1.6,0,0,0-.53-1.26,2.45,2.45,0,0,0-1.62-.45h-1.14v3.63Z"/><path class="cls-2" d="M286.6,170h-2.2a.92.92,0,0,1-.59-.17,1,1,0,0,1-.35-.44l-.72-2.13h-4.66l-.72,2.13a.94.94,0,0,1-.33.42.91.91,0,0,1-.59.19h-2.22L279,157.78h2.91Zm-4.51-4.68L281,162a7.78,7.78,0,0,1-.27-.75c-.1-.29-.19-.6-.29-.94a9.11,9.11,0,0,1-.27.95c-.09.29-.18.55-.26.76l-1.13,3.33Z"/><path class="cls-2" d="M290.42,170h-2.85V157.78h2.85Z"/><path class="cls-2" d="M303.48,157.78V170H302a1.29,1.29,0,0,1-.55-.1,1.22,1.22,0,0,1-.44-.37l-5.77-7.3c0,.22,0,.43,0,.64s0,.39,0,.57V170h-2.51V157.78h1.5l.31,0a.86.86,0,0,1,.23.06,1.07,1.07,0,0,1,.19.13l.21.23,5.82,7.35c0-.23-.05-.46-.06-.68s0-.43,0-.63v-6.48Z"/><path class="cls-2" d="M308.7,170h-2.85V157.78h2.85Z"/><path class="cls-2" d="M321.76,157.78V170h-1.48a1.29,1.29,0,0,1-.55-.1,1.22,1.22,0,0,1-.44-.37l-5.77-7.3c0,.22,0,.43,0,.64s0,.39,0,.57V170h-2.5V157.78h1.5l.31,0a.71.71,0,0,1,.22.06.86.86,0,0,1,.2.13l.21.23,5.82,7.35c0-.23-.05-.46-.06-.68s0-.43,0-.63v-6.48Z"/><path class="cls-2" d="M330,163.68h4.36v5.17a6.52,6.52,0,0,1-2,1,8.15,8.15,0,0,1-2.22.31,7.56,7.56,0,0,1-2.75-.48,6.17,6.17,0,0,1-2.12-1.31,5.79,5.79,0,0,1-1.36-2,6.35,6.35,0,0,1-.48-2.49,6.88,6.88,0,0,1,.45-2.52,5.64,5.64,0,0,1,1.3-2,5.8,5.8,0,0,1,2-1.3,7.35,7.35,0,0,1,2.68-.46,7.17,7.17,0,0,1,1.43.13,6.42,6.42,0,0,1,1.24.34,5.94,5.94,0,0,1,1,.52,5.56,5.56,0,0,1,.84.66l-.82,1.25a.85.85,0,0,1-.5.36.92.92,0,0,1-.66-.15c-.23-.14-.44-.25-.64-.35a3.51,3.51,0,0,0-.61-.24,3.25,3.25,0,0,0-.65-.13,6,6,0,0,0-.77,0,3.66,3.66,0,0,0-1.44.28,3.12,3.12,0,0,0-1.09.8,3.51,3.51,0,0,0-.69,1.23,5,5,0,0,0-.25,1.6,5.11,5.11,0,0,0,.27,1.73,3.78,3.78,0,0,0,.76,1.28,3.31,3.31,0,0,0,1.18.79,4.11,4.11,0,0,0,1.52.27,3.71,3.71,0,0,0,.92-.1,3.85,3.85,0,0,0,.81-.27v-1.85h-1.2a.57.57,0,0,1-.42-.15.47.47,0,0,1-.16-.36Z"/></svg>