<svg id="Layer_1" data-name="Layer 1" xmlns="http://www.w3.org/2000/svg" xmlns:xlink="http://www.w3.org/1999/xlink" viewBox="0 0 120 120"><defs><style>.cls-1{fill:url(#linear-gradient);}.cls-2{fill:#fff;}</style><linearGradient id="linear-gradient" x1="60" y1="120" x2="60" y2="-1" gradientUnits="userSpaceOnUse"><stop offset="0" stop-color="#f99e36"/><stop offset="0.99" stop-color="#d98a25"/></linearGradient></defs><title>AWS Architect_Medium</title><rect class="cls-1" y="-1" width="120" height="121"/><path class="cls-2" d="M59.14,61.93l-.11,0-5.82-2a.31.31,0,0,1-.22-.31l-.1-8.47a.33.33,0,0,1,.13-.26.31.31,0,0,1,.28-.06l5.92,1.45a.32.32,0,0,1,.25.32V61.6a.33.33,0,0,1-.14.27A.31.31,0,0,1,59.14,61.93Zm-5.49-2.62,5.16,1.82V52.79L53.56,51.5Z"/><path class="cls-2" d="M60.74,61.82a.36.36,0,0,1-.2-.06.33.33,0,0,1-.13-.26l-.12-8.88a.35.35,0,0,1,.24-.33l6-1.7a.34.34,0,0,1,.29.06.33.33,0,0,1,.13.26v8.64a.36.36,0,0,1-.23.32l-5.92,1.94Zm.22-9,.1,8.18,5.26-1.73v-8Z"/><polygon class="cls-2" points="59.83 48.48 54.36 50.2 59.98 51.67 65.52 50.05 59.83 48.48"/><path class="cls-2" d="M44.29,61.93l-.11,0-5.82-2a.31.31,0,0,1-.22-.31L38,51.08a.33.33,0,0,1,.13-.26.31.31,0,0,1,.28-.06l5.92,1.45a.32.32,0,0,1,.25.32V61.6a.33.33,0,0,1-.14.27A.31.31,0,0,1,44.29,61.93ZM38.8,59.31,44,61.13V52.79L38.71,51.5Z"/><path class="cls-2" d="M45.89,61.82a.36.36,0,0,1-.2-.06.38.38,0,0,1-.14-.26l-.11-8.88a.35.35,0,0,1,.24-.33l6-1.7a.34.34,0,0,1,.29.06.33.33,0,0,1,.13.26v8.64a.36.36,0,0,1-.23.32L46,61.81Zm.22-9,.1,8.18,5.26-1.73v-8Z"/><polygon class="cls-2" points="44.98 48.48 39.51 50.2 45.13 51.67 50.67 50.05 44.98 48.48"/><path class="cls-2" d="M66.54,74.27l-.11,0-5.82-2a.32.32,0,0,1-.23-.3l-.09-8.47a.35.35,0,0,1,.13-.27.35.35,0,0,1,.28-.06l5.92,1.45a.33.33,0,0,1,.25.32v9.07a.32.32,0,0,1-.14.27A.31.31,0,0,1,66.54,74.27ZM61,71.66l5.17,1.81V65.13L61,63.85Z"/><path class="cls-2" d="M68.14,74.17a.35.35,0,0,1-.34-.33L67.69,65a.33.33,0,0,1,.24-.32l6-1.7a.34.34,0,0,1,.29.05.33.33,0,0,1,.13.26v8.64a.35.35,0,0,1-.23.32l-5.92,1.94Zm.22-9,.1,8.17,5.26-1.73v-8Z"/><polygon class="cls-2" points="67.23 60.82 61.76 62.54 67.38 64.01 72.92 62.39 67.23 60.82"/><path class="cls-2" d="M81.44,74.27l-.11,0-5.82-2a.31.31,0,0,1-.22-.3l-.1-8.47a.35.35,0,0,1,.13-.27.35.35,0,0,1,.28-.06l5.92,1.45a.34.34,0,0,1,.26.32v9.07a.35.35,0,0,1-.14.27A.36.36,0,0,1,81.44,74.27ZM76,71.66l5.16,1.81V65.13l-5.25-1.28Z"/><path class="cls-2" d="M83,74.17a.35.35,0,0,1-.33-.33L82.59,65a.33.33,0,0,1,.24-.32l6-1.7a.32.32,0,0,1,.42.31v8.64a.33.33,0,0,1-.23.32l-5.92,1.94Zm.22-9,.1,8.17,5.27-1.73v-8Z"/><polygon class="cls-2" points="82.14 60.82 76.66 62.54 82.28 64.01 87.82 62.39 82.14 60.82"/><path class="cls-2" d="M73.93,86.61a.2.2,0,0,1-.11,0l-5.83-2a.33.33,0,0,1-.22-.31l-.09-8.47a.32.32,0,0,1,.12-.26.34.34,0,0,1,.29-.07L74,76.89a.33.33,0,0,1,.25.32v9.07a.32.32,0,0,1-.14.27A.33.33,0,0,1,73.93,86.61ZM68.43,84l5.17,1.81V77.47l-5.25-1.28Z"/><path class="cls-2" d="M75.52,86.51a.3.3,0,0,1-.19-.07.33.33,0,0,1-.14-.26l-.11-8.88a.32.32,0,0,1,.24-.32l6-1.7a.33.33,0,0,1,.29,0,.32.32,0,0,1,.14.27v8.63a.35.35,0,0,1-.23.32l-5.92,1.94Zm.22-9,.11,8.17L81.11,84V76Z"/><polygon class="cls-2" points="74.62 73.16 69.14 74.88 74.77 76.35 80.31 74.74 74.62 73.16"/><path class="cls-2" d="M11,69.57A17.68,17.68,0,0,1,34.37,52.8a21.4,21.4,0,0,1,40.87-.91,15.76,15.76,0,0,1,6.41-1.35A15.94,15.94,0,0,1,97.2,63a11.66,11.66,0,0,1,1.34-.07,12.33,12.33,0,0,1,11.37,7.5A12.25,12.25,0,0,0,97.64,59.05a11.66,11.66,0,0,0-1.34.07A15.94,15.94,0,0,0,80.75,46.66,15.76,15.76,0,0,0,74.34,48a21.4,21.4,0,0,0-40.87.91A17.67,17.67,0,0,0,11.12,71.59,19.22,19.22,0,0,1,11,69.57Z"/></svg>