<svg id="Layer_1" data-name="Layer 1" xmlns="http://www.w3.org/2000/svg" viewBox="0 0 355 189.11"><defs><style>.cls-1{fill:#056599;}.cls-2{fill:#a5cbf0;}.cls-3{fill:#f7951e;}.cls-4{fill:#c1ddf4;}</style></defs><title>devops-L</title><rect class="cls-1" x="-4.97" y="-1.24" width="364.98" height="193.59"/><path class="cls-2" d="M177.05,79.32c-4.23,15.87-32.4,46.3-69.26-5.53l-1.07-1.61C60.86,7.7,21.43,48.67,22.47,70.63h.2c3.72-14.86,32.21-46.49,69.45,5.88l.54.62c45.65,64.2,82.38,23.76,84.79,2.21Z"/><path class="cls-3" d="M90.41,71.58c-40.31,59-67.65,19.81-67.65,8h0c-.94,16.74,32.79,65.64,80.71-1.75L105,75.89c39.8-56,72.14-16.44,72.45-3.46h0c1.12-20.32-39.13-68.25-87.05-.85Z"/><path class="cls-4" d="M166.84,140.19a13.16,13.16,0,0,1-.93,5,11.78,11.78,0,0,1-2.63,4,12,12,0,0,1-4.09,2.6,14.3,14.3,0,0,1-5.31.94h-9.7v-25h9.7a14.3,14.3,0,0,1,5.31,1,12,12,0,0,1,4.09,2.6,11.64,11.64,0,0,1,2.63,4A13.14,13.14,0,0,1,166.84,140.19Zm-5.93,0a10.86,10.86,0,0,0-.48-3.34,7.17,7.17,0,0,0-1.38-2.53,6,6,0,0,0-2.2-1.59,7.53,7.53,0,0,0-3-.56H150v16.06h3.87a7.35,7.35,0,0,0,3-.56,6,6,0,0,0,2.2-1.59,7.09,7.09,0,0,0,1.38-2.53A10.9,10.9,0,0,0,160.91,140.19Z"/><path class="cls-4" d="M185.7,127.71v4.46H175.45V138h7.85v4.28h-7.85v5.95H185.7v4.46H169.62v-25Z"/><path class="cls-4" d="M186.93,127.71h4.66a2.07,2.07,0,0,1,1.24.35,1.82,1.82,0,0,1,.68.91l4.84,13.36c.21.59.43,1.22.66,1.91s.43,1.4.62,2.16c.16-.76.35-1.48.56-2.16s.42-1.32.62-1.91l4.8-13.36a2,2,0,0,1,.67-.87,1.92,1.92,0,0,1,1.22-.39h4.7l-10,25h-5.25Z"/><path class="cls-4" d="M237.87,140.19a13.45,13.45,0,0,1-.93,5,12.1,12.1,0,0,1-2.63,4.06,12.36,12.36,0,0,1-4.09,2.7,15,15,0,0,1-10.62,0,12.3,12.3,0,0,1-4.1-2.7,12,12,0,0,1-2.64-4.06,14,14,0,0,1,0-10.08,11.89,11.89,0,0,1,2.64-4,12.13,12.13,0,0,1,4.1-2.69,14,14,0,0,1,5.32-1,13.71,13.71,0,0,1,5.3,1,11.85,11.85,0,0,1,6.72,6.74A13.42,13.42,0,0,1,237.87,140.19Zm-5.93,0a10.8,10.8,0,0,0-.48-3.33,7,7,0,0,0-1.38-2.51,5.94,5.94,0,0,0-2.2-1.58,7.51,7.51,0,0,0-3-.55,7.68,7.68,0,0,0-3,.55,6,6,0,0,0-2.21,1.58,7,7,0,0,0-1.38,2.51,11.86,11.86,0,0,0,0,6.68,7,7,0,0,0,1.38,2.51,5.84,5.84,0,0,0,2.21,1.57,7.87,7.87,0,0,0,3,.54,7.69,7.69,0,0,0,3-.54,5.8,5.8,0,0,0,2.2-1.57,7,7,0,0,0,1.38-2.51A10.79,10.79,0,0,0,231.94,140.19Z"/><path class="cls-4" d="M246.44,144.34v8.35h-5.79v-25h8.81a14.4,14.4,0,0,1,4.53.63,8.64,8.64,0,0,1,3.12,1.72,6.73,6.73,0,0,1,1.81,2.59,8.73,8.73,0,0,1,.59,3.22,9.26,9.26,0,0,1-.61,3.43,6.87,6.87,0,0,1-1.83,2.68,8.49,8.49,0,0,1-3.13,1.73,14.2,14.2,0,0,1-4.48.63Zm0-4.37h3a4.27,4.27,0,0,0,3.26-1.08,5,5,0,0,0,.73-4.58,3,3,0,0,0-.78-1.2,3.45,3.45,0,0,0-1.32-.79,5.9,5.9,0,0,0-1.89-.27h-3Z"/><path class="cls-4" d="M276.44,132.79a2.06,2.06,0,0,1-.54.61,1.19,1.19,0,0,1-.73.21,1.77,1.77,0,0,1-.85-.25l-1-.56a8.47,8.47,0,0,0-1.31-.55,5.12,5.12,0,0,0-1.68-.25,3.62,3.62,0,0,0-2.42.69,2.38,2.38,0,0,0-.8,1.88,1.73,1.73,0,0,0,.48,1.25,4.17,4.17,0,0,0,1.26.86,13.38,13.38,0,0,0,1.78.66c.67.2,1.35.42,2,.67a17.43,17.43,0,0,1,2.05.86,6.86,6.86,0,0,1,1.78,1.27,5.85,5.85,0,0,1,1.26,1.88,6.62,6.62,0,0,1,.48,2.66,8.64,8.64,0,0,1-.6,3.24,7.46,7.46,0,0,1-1.74,2.63,8,8,0,0,1-2.81,1.77,10.48,10.48,0,0,1-3.8.64,12.22,12.22,0,0,1-2.37-.24,13.55,13.55,0,0,1-4.46-1.71,9.21,9.21,0,0,1-1.74-1.34l1.72-2.71a1.33,1.33,0,0,1,.53-.49,1.46,1.46,0,0,1,.74-.19,2,2,0,0,1,1,.32l1.19.72a8.48,8.48,0,0,0,1.51.72,5.65,5.65,0,0,0,2,.33,3.82,3.82,0,0,0,2.45-.7,2.63,2.63,0,0,0,.87-2.2,2.07,2.07,0,0,0-.48-1.42,3.65,3.65,0,0,0-1.26-.91,11.37,11.37,0,0,0-1.77-.63c-.66-.19-1.35-.39-2-.61a13.85,13.85,0,0,1-2-.83,6.4,6.4,0,0,1-1.78-1.28,6,6,0,0,1-1.26-2,7.86,7.86,0,0,1-.48-2.94,6.9,6.9,0,0,1,.57-2.74,7.07,7.07,0,0,1,1.66-2.38,8,8,0,0,1,2.69-1.67,9.9,9.9,0,0,1,3.65-.63,13.64,13.64,0,0,1,2.24.18,12.06,12.06,0,0,1,2.07.53,11.23,11.23,0,0,1,1.82.84,8.74,8.74,0,0,1,1.52,1.11Z"/><path class="cls-4" d="M150.71,168.49l.19,0,.18.12,1,1.11a4.37,4.37,0,0,1-1.72,1.35,6.12,6.12,0,0,1-2.45.46,5.89,5.89,0,0,1-2.32-.44,5,5,0,0,1-1.74-1.22,5.2,5.2,0,0,1-1.1-1.85,6.67,6.67,0,0,1-.38-2.31,6.13,6.13,0,0,1,.43-2.34,5.56,5.56,0,0,1,1.23-1.84,5.37,5.37,0,0,1,1.87-1.2,6.88,6.88,0,0,1,3.62-.32,6.28,6.28,0,0,1,1.06.31,6,6,0,0,1,.91.48,4.45,4.45,0,0,1,.73.61l-.89,1.2a1.26,1.26,0,0,1-.2.2.54.54,0,0,1-.33.09.48.48,0,0,1-.26-.07l-.27-.15-.31-.19a2.13,2.13,0,0,0-.4-.2,3,3,0,0,0-.54-.15,3.73,3.73,0,0,0-.72-.06,3.29,3.29,0,0,0-1.31.25,2.77,2.77,0,0,0-1,.73,3.35,3.35,0,0,0-.66,1.14,4.47,4.47,0,0,0-.24,1.51,4.63,4.63,0,0,0,.24,1.55,3.29,3.29,0,0,0,.65,1.15,2.7,2.7,0,0,0,.95.7,2.77,2.77,0,0,0,1.17.25,6.5,6.5,0,0,0,.66,0,2.33,2.33,0,0,0,.55-.12,2.62,2.62,0,0,0,.48-.22,3.46,3.46,0,0,0,.47-.34.86.86,0,0,1,.2-.13A.48.48,0,0,1,150.71,168.49Z"/><path class="cls-4" d="M160.65,160.05v2H156v2.66h3.58v1.95H156v2.71h4.67v2h-7.32V160.05Z"/><path class="cls-4" d="M164.79,167.22v4.21h-2.64V160.05h3.7a7.55,7.55,0,0,1,2.11.26,4,4,0,0,1,1.42.7,2.74,2.74,0,0,1,.8,1.07,3.73,3.73,0,0,1,.1,2.39,3.2,3.2,0,0,1-.44.91,3.65,3.65,0,0,1-.72.75,3.7,3.7,0,0,1-1,.54,2.7,2.7,0,0,1,.5.33,2.07,2.07,0,0,1,.4.47l2.42,4h-2.39a1,1,0,0,1-.95-.5l-1.89-3.3a.75.75,0,0,0-.3-.31.86.86,0,0,0-.47-.1Zm0-1.82h1.06a2.76,2.76,0,0,0,.92-.13,1.67,1.67,0,0,0,.62-.38,1.4,1.4,0,0,0,.35-.57,2,2,0,0,0,.11-.7,1.45,1.45,0,0,0-.49-1.17,2.27,2.27,0,0,0-1.51-.42h-1.06Z"/><path class="cls-4" d="M180.33,160.05v2.1h-3.2v9.28h-2.64v-9.28h-3.2v-2.1Z"/><path class="cls-4" d="M184.32,171.43h-2.66V160.05h2.66Z"/><path class="cls-4" d="M193.75,160.05v2h-4.67V165H193v2h-3.89v4.43h-2.66V160.05Z"/><path class="cls-4" d="M198,171.43h-2.65V160.05H198Z"/><path class="cls-4" d="M207.77,168.49l.19,0,.18.12,1,1.11a4.37,4.37,0,0,1-1.72,1.35,6.12,6.12,0,0,1-2.45.46,5.89,5.89,0,0,1-2.32-.44A5,5,0,0,1,201,169.9a5.2,5.2,0,0,1-1.1-1.85,6.91,6.91,0,0,1-.38-2.31,6.13,6.13,0,0,1,.43-2.34,5.56,5.56,0,0,1,1.23-1.84,5.32,5.32,0,0,1,1.88-1.2,6.42,6.42,0,0,1,2.41-.43,6.64,6.64,0,0,1,1.21.11,6.44,6.44,0,0,1,1.05.31,6,6,0,0,1,.91.48,4.45,4.45,0,0,1,.73.61l-.89,1.2a1,1,0,0,1-.2.2.54.54,0,0,1-.33.09.48.48,0,0,1-.26-.07l-.27-.15-.31-.19a2.13,2.13,0,0,0-.4-.2,3.07,3.07,0,0,0-.53-.15,3.91,3.91,0,0,0-.73-.06,3.29,3.29,0,0,0-1.31.25,2.77,2.77,0,0,0-1,.73,3.35,3.35,0,0,0-.66,1.14,4.47,4.47,0,0,0-.24,1.51,4.63,4.63,0,0,0,.24,1.55,3.29,3.29,0,0,0,.65,1.15,2.7,2.7,0,0,0,.95.7,2.77,2.77,0,0,0,1.17.25,6.5,6.5,0,0,0,.66,0,2.33,2.33,0,0,0,.55-.12,3.06,3.06,0,0,0,.49-.22,4.16,4.16,0,0,0,.46-.34.86.86,0,0,1,.2-.13A.48.48,0,0,1,207.77,168.49Z"/><path class="cls-4" d="M221,171.43h-2a.94.94,0,0,1-.57-.16.78.78,0,0,1-.3-.41l-.68-2h-4.32l-.67,2a1,1,0,0,1-.31.4.92.92,0,0,1-.55.17h-2.07l4.41-11.38h2.7Zm-7.31-4.35h3.1l-1-3.11-.24-.7q-.13-.41-.27-.87c-.08.31-.17.61-.26.88s-.17.5-.25.7Z"/><path class="cls-4" d="M228.91,160.05v2.1h-3.2v9.28h-2.64v-9.28h-3.2v-2.1Z"/><path class="cls-4" d="M232.89,171.43h-2.65V160.05h2.65Z"/><path class="cls-4" d="M246.23,165.74a6.14,6.14,0,0,1-.42,2.29,5.43,5.43,0,0,1-3.06,3.08,6.73,6.73,0,0,1-4.84,0,5.49,5.49,0,0,1-1.87-1.23,5.38,5.38,0,0,1-1.2-1.85,6,6,0,0,1-.43-2.29,6,6,0,0,1,.43-2.3,5.33,5.33,0,0,1,1.2-1.84,5.64,5.64,0,0,1,1.87-1.23,6.48,6.48,0,0,1,2.42-.44,6.32,6.32,0,0,1,2.42.45,5.69,5.69,0,0,1,1.86,1.23,5.48,5.48,0,0,1,1.2,1.84A6.17,6.17,0,0,1,246.23,165.74Zm-2.7,0a4.81,4.81,0,0,0-.22-1.52,3,3,0,0,0-.63-1.14,2.5,2.5,0,0,0-1-.72,3.8,3.8,0,0,0-2.71,0,2.53,2.53,0,0,0-1,.72,3.3,3.3,0,0,0-.63,1.14,5.4,5.4,0,0,0,0,3.05,3.3,3.3,0,0,0,.63,1.14,2.61,2.61,0,0,0,1,.71,3.8,3.8,0,0,0,2.71,0,2.57,2.57,0,0,0,1-.71,3,3,0,0,0,.63-1.14A4.83,4.83,0,0,0,243.53,165.74Z"/><path class="cls-4" d="M249.18,160.07a.65.65,0,0,1,.21.06.94.94,0,0,1,.18.12,1.37,1.37,0,0,1,.19.21l5.41,6.83c0-.22,0-.43,0-.63s0-.4,0-.59v-6h2.32v11.38h-1.37a1.35,1.35,0,0,1-.52-.09,1.06,1.06,0,0,1-.4-.35l-5.37-6.77c0,.19,0,.39,0,.58s0,.37,0,.53v6.1H247.5V160.05h1.39Z"/><path class="cls-4" d="M270.59,160.05v2.1h-3.21v9.28h-2.64v-9.28h-3.2v-2.1Z"/><path class="cls-4" d="M274.32,167.22v4.21h-2.64V160.05h3.7a7.6,7.6,0,0,1,2.11.26,4,4,0,0,1,1.42.7,2.84,2.84,0,0,1,.8,1.07,3.73,3.73,0,0,1,.1,2.39,3.2,3.2,0,0,1-.44.91,3.65,3.65,0,0,1-.72.75,3.7,3.7,0,0,1-1,.54,2.7,2.7,0,0,1,.5.33,2.07,2.07,0,0,1,.4.47l2.42,4H278.6a1,1,0,0,1-1-.5l-1.89-3.3a.75.75,0,0,0-.3-.31.89.89,0,0,0-.47-.1Zm0-1.82h1.06a2.76,2.76,0,0,0,.92-.13,1.67,1.67,0,0,0,.62-.38,1.4,1.4,0,0,0,.35-.57,2,2,0,0,0,.11-.7,1.45,1.45,0,0,0-.49-1.17,2.27,2.27,0,0,0-1.51-.42h-1.06Z"/><path class="cls-4" d="M292.66,171.43h-2.05a.94.94,0,0,1-.57-.16.78.78,0,0,1-.3-.41l-.68-2h-4.32l-.67,2a1,1,0,0,1-.31.4.9.9,0,0,1-.55.17h-2.07l4.41-11.38h2.7Zm-7.31-4.35h3.11l-1-3.11-.24-.7q-.14-.41-.27-.87c-.08.31-.17.61-.26.88s-.17.5-.25.7Z"/><path class="cls-4" d="M296.47,171.43h-2.66V160.05h2.66Z"/><path class="cls-4" d="M300.26,160.07l.21.06.18.12a2.2,2.2,0,0,1,.19.21l5.41,6.83c0-.22,0-.43-.05-.63s0-.4,0-.59v-6h2.33v11.38h-1.37a1.31,1.31,0,0,1-.52-.09,1.06,1.06,0,0,1-.4-.35l-5.37-6.77c0,.19,0,.39,0,.58s0,.37,0,.53v6.1h-2.32V160.05H300Z"/><path class="cls-4" d="M313.28,171.43h-2.66V160.05h2.66Z"/><path class="cls-4" d="M317.06,160.07a.65.65,0,0,1,.21.06.57.57,0,0,1,.18.12,1.37,1.37,0,0,1,.2.21l5.4,6.83c0-.22,0-.43,0-.63s0-.4,0-.59v-6h2.33v11.38h-1.38a1.29,1.29,0,0,1-.51-.09A1.08,1.08,0,0,1,323,171l-5.36-6.77c0,.19,0,.39,0,.58s0,.37,0,.53v6.1h-2.32V160.05h1.38Z"/><path class="cls-4" d="M332.55,169.53a4,4,0,0,0,1-.1,4.14,4.14,0,0,0,.8-.25v-1.72h-1.13a.53.53,0,0,1-.39-.14.44.44,0,0,1-.14-.33v-1.45h4v4.8a6.68,6.68,0,0,1-.91.55,6.39,6.39,0,0,1-1,.38,7.94,7.94,0,0,1-1.14.22c-.41,0-.84.07-1.3.07a6,6,0,0,1-2.31-.44,5.69,5.69,0,0,1-1.84-1.22,5.47,5.47,0,0,1-1.22-1.85,5.87,5.87,0,0,1-.44-2.31,6.32,6.32,0,0,1,.42-2.34,5.28,5.28,0,0,1,3.1-3,6.85,6.85,0,0,1,2.49-.43,8.17,8.17,0,0,1,1.34.11,7.4,7.4,0,0,1,1.15.32,5.4,5.4,0,0,1,1,.49,4.49,4.49,0,0,1,.78.61l-.76,1.16a.81.81,0,0,1-.26.26.63.63,0,0,1-.33.09,1,1,0,0,1-.49-.15,6.05,6.05,0,0,0-.59-.33,3.83,3.83,0,0,0-.56-.22,3.14,3.14,0,0,0-.61-.12,5.39,5.39,0,0,0-.72,0,3.21,3.21,0,0,0-1.34.26,2.84,2.84,0,0,0-1,.74,3.25,3.25,0,0,0-.64,1.14,4.4,4.4,0,0,0-.23,1.49,4.73,4.73,0,0,0,.25,1.61,3.5,3.5,0,0,0,.69,1.18,2.79,2.79,0,0,0,1.05.74A3.34,3.34,0,0,0,332.55,169.53Z"/></svg>