<svg id="Layer_1" data-name="Layer 1" xmlns="http://www.w3.org/2000/svg" viewBox="0 0 355 189.11"><defs><style>.cls-1{fill:#4285f4;}.cls-2{fill:#ff0;}.cls-3{fill:#fff;}</style></defs><title>big data &amp;amp; hadoop-L</title><rect class="cls-1" x="-7.27" y="-3.88" width="369.55" height="196.86"/><rect class="cls-1" x="-0.85" width="166.14" height="191"/><path class="cls-2" d="M178.77,110.11a4.57,4.57,0,0,0-1.7-1.11,10.76,10.76,0,0,0-2-.6,19.38,19.38,0,0,0-2.16-.32,5.07,5.07,0,0,0-2.06.13,4.05,4.05,0,0,0-1.7,1.08,7.06,7.06,0,0,0-1.19,1.74,19.63,19.63,0,0,0-1.41,4.12c-.35,1.42-.62,2.87-.9,4.33a69.72,69.72,0,0,1-2,8.71,17.21,17.21,0,0,1-1.92,4.1,8.34,8.34,0,0,1-3.46,3,8.27,8.27,0,0,1-4.58.59,5.58,5.58,0,0,1-2.2-.9,6.16,6.16,0,0,1-1.63-1.71,11.78,11.78,0,0,1-1.59-4.31,27.3,27.3,0,0,1-.42-4.5,58.09,58.09,0,0,1,.64-8.94v0l0-.05a39.79,39.79,0,0,0,1.81-11.25,39.1,39.1,0,0,0-6-21.63A38.64,38.64,0,0,0,140.91,78a39.6,39.6,0,0,0-35.45-13.67,40.45,40.45,0,0,0-5.75,1.28h-.14l-.88.29-.14,0h0l-1.07.35h0L96.74,66c-.68-.26-1.35-.5-2-.72s-1.44-.42-2.18-.57a14.28,14.28,0,0,0-4.25-.33,8,8,0,0,0-3.82,1.22,14.16,14.16,0,0,0-3,2.89,41.66,41.66,0,0,0-4.42,7c-2.68,5.9-5.18,11.85-7.26,17.9a81.69,81.69,0,0,0-3.61,14.07,31.44,31.44,0,0,0-.4,7,21,21,0,0,0,.45,3.37A4,4,0,0,0,67.5,120a13.52,13.52,0,0,0,6,2.66,41.1,41.1,0,0,0,7.16.88,82.45,82.45,0,0,0,14.71-.75,73,73,0,0,0,7.25-1.36,17,17,0,0,0,3.34-1.12,4.1,4.1,0,0,0,2-2.42,10.55,10.55,0,0,0-.19-5.61l1,0a11.38,11.38,0,0,1,.47,6,5.62,5.62,0,0,1-2.45,3.4,18.64,18.64,0,0,1-3.65,1.5A59.3,59.3,0,0,1,95.71,125a85.9,85.9,0,0,1-15.13,1.46,45,45,0,0,1-7.72-.61,16.74,16.74,0,0,1-7.68-3.08,7.74,7.74,0,0,1-2.64-4,25.48,25.48,0,0,1-.75-4,35.42,35.42,0,0,1,.24-7.92A65.87,65.87,0,0,1,66.23,92c.83-2,1.74-4,2.68-6l-3,2.27-.14.11-.15,0-6,1.38-.76.18c-.25,0-.48.14-.72.2-.49.14-1,.29-1.45.45l-1.45.49c-.48.17-1,.35-1.43.54A47.27,47.27,0,0,0,43.06,97.5a34.25,34.25,0,0,0-8.48,8.71,24.82,24.82,0,0,0-4.17,11.24l-.33.07-.14,0-.28,0-.56.12L28,118a19.76,19.76,0,0,0-2.16.77,14.8,14.8,0,0,0-3.89,2.32,9,9,0,0,0-2.62,3.58,9.22,9.22,0,0,0-.52,4.39,10.07,10.07,0,0,0,.17,1.1,1.86,1.86,0,0,0,.52,1c1.91,1.5,3.41-1.26,4.12-3.69a5.88,5.88,0,0,1,2.66-3.7,8.06,8.06,0,0,1,4.84-.54l0,.21c.1.53.22,1.07.35,1.6s.3,1.06.47,1.56.39,1,.59,1.55.42,1,.65,1.5l0,0v0A52.58,52.58,0,0,1,34.52,135q.52,2.61,1,5.24c.59,3.5,1.12,7,1.63,10.52s1,7,1.4,10.54q.61,4.85,1.17,9.7c3.41.17,6.83.29,10.25.3s6.87-.09,10.26-.4c0-.14,0-.27.08-.42.07-.41.13-.84.18-1.27.11-.85.21-1.73.29-2.6.16-1.75.3-3.51.43-5.28.25-3.52.45-7.06.62-10.59l.07-1.4,1.37.28a62.32,62.32,0,0,0,15.42,1.22,63.84,63.84,0,0,0,7.69-.81,58.84,58.84,0,0,0,7.53-1.78l1.7-.53-.1,1.79c-.11,1.86-.16,3.78-.2,5.69s-.08,3.81-.11,5.72,0,3.82,0,5.72c0,1,0,1.9,0,2.85,0,.47,0,.94,0,1.4,0,.12,0,.22,0,.33,3.37.18,6.76.29,10.14.32s7,0,10.49-.26c.2-.41.39-.85.57-1.29q.41-1,.78-2c.5-1.33,1-2.68,1.46-4,1-2.71,1.88-5.43,2.79-8.15q2.46-7.42,4.83-14.89l.62-1.92.39-.2,1.37-.66.72-.35.48.57.76.91.77.86c.52.57,1.06,1.12,1.61,1.65a32.83,32.83,0,0,0,3.52,2.94,29.53,29.53,0,0,0,3.92,2.36,25.85,25.85,0,0,0,4.26,1.64,22.76,22.76,0,0,0,9,.74,21.73,21.73,0,0,0,8.58-3,21.11,21.11,0,0,0,8.77-10.3c.29-.72.53-1.43.77-2.19l.72-2.26c1.93-6,4-12,6-17.95l0-.06,0-.06a3.84,3.84,0,0,0,.72-1.82A2.21,2.21,0,0,0,178.77,110.11ZM120.05,95.5h0c.11-4.41,2-6.88,8.87-7C123.45,89.71,121.48,92.48,120.05,95.5Zm9.55,9.84-.22,0a2.27,2.27,0,0,0,1.27-2,2.3,2.3,0,1,0-4.6,0,1.85,1.85,0,0,0,.11.54,4.71,4.71,0,0,1,3.44-7.94,4.73,4.73,0,1,1,0,9.45Z"/><path class="cls-3" d="M200.24,145.37V127.21h5.23a10.53,10.53,0,0,1,2.68.3,5.08,5.08,0,0,1,1.88.91,3.65,3.65,0,0,1,1.11,1.45,4.89,4.89,0,0,1,.37,2,3.83,3.83,0,0,1-.25,1.38,4,4,0,0,1-.73,1.23,4.5,4.5,0,0,1-1.16,1,5.55,5.55,0,0,1-1.57.63,5.92,5.92,0,0,1,3.3,1.42,3.86,3.86,0,0,1,1.15,2.92,5,5,0,0,1-.41,2.08,4.15,4.15,0,0,1-1.19,1.56,5.28,5.28,0,0,1-1.92,1,9,9,0,0,1-2.6.35Zm1.31-9.67h3.94a6.45,6.45,0,0,0,2.15-.32,4.23,4.23,0,0,0,1.46-.85,3.32,3.32,0,0,0,.84-1.19,3.6,3.6,0,0,0,.27-1.37,3.35,3.35,0,0,0-1.16-2.78,5.61,5.61,0,0,0-3.58-.95h-3.92Zm0,1v7.65h4.56a5.48,5.48,0,0,0,3.62-1,3.62,3.62,0,0,0,1.22-2.91,3.48,3.48,0,0,0-.33-1.54,3.26,3.26,0,0,0-1-1.17,4.35,4.35,0,0,0-1.51-.74,7.48,7.48,0,0,0-2-.26Z"/><path class="cls-3" d="M218.49,145.37h-1.32V127.21h1.32Z"/><path class="cls-3" d="M232.17,144.51a14.59,14.59,0,0,0,1.71-.1,9.76,9.76,0,0,0,1.43-.29,8.6,8.6,0,0,0,1.26-.47c.4-.18.8-.39,1.2-.62v-4.89h-3.49a.32.32,0,0,1-.24-.09.3.3,0,0,1-.1-.21v-.71h5v6.45a11.23,11.23,0,0,1-1.41.85,9.5,9.5,0,0,1-1.57.62,11.5,11.5,0,0,1-1.79.39,17.07,17.07,0,0,1-2.11.13,9.39,9.39,0,0,1-3.58-.66,8,8,0,0,1-2.79-1.87,8.41,8.41,0,0,1-1.8-2.94,11.55,11.55,0,0,1,0-7.64,8.21,8.21,0,0,1,1.82-2.93,8.12,8.12,0,0,1,2.87-1.87,10.27,10.27,0,0,1,3.78-.66,12.73,12.73,0,0,1,1.92.14,8.83,8.83,0,0,1,1.63.42,7.07,7.07,0,0,1,1.41.68,9.29,9.29,0,0,1,1.26.93l-.34.56a.38.38,0,0,1-.33.2.42.42,0,0,1-.21-.06,2.46,2.46,0,0,1-.56-.36,6.84,6.84,0,0,0-1-.58,8.67,8.67,0,0,0-1.56-.56,9.24,9.24,0,0,0-2.27-.24,8.77,8.77,0,0,0-3.2.56,6.82,6.82,0,0,0-2.43,1.62,7.13,7.13,0,0,0-1.55,2.57,10.85,10.85,0,0,0,0,6.85,7.34,7.34,0,0,0,1.54,2.59,6.75,6.75,0,0,0,2.39,1.62A8,8,0,0,0,232.17,144.51Z"/><path class="cls-3" d="M263.82,136.28a10.7,10.7,0,0,1-.63,3.78,8.18,8.18,0,0,1-1.77,2.87,7.76,7.76,0,0,1-2.73,1.81,9.73,9.73,0,0,1-3.53.63h-6.63V127.21h6.63a9.73,9.73,0,0,1,3.53.62,7.76,7.76,0,0,1,2.73,1.81,8.32,8.32,0,0,1,1.77,2.86A10.74,10.74,0,0,1,263.82,136.28Zm-1.36,0a10.14,10.14,0,0,0-.53-3.39,7,7,0,0,0-1.48-2.51,6.25,6.25,0,0,0-2.3-1.57,8,8,0,0,0-3-.54h-5.3v16h5.3a8,8,0,0,0,3-.54,6.25,6.25,0,0,0,2.3-1.57,7,7,0,0,0,1.48-2.51A10.2,10.2,0,0,0,262.46,136.28Z"/><path class="cls-3" d="M281.32,145.37h-1a.44.44,0,0,1-.29-.1.58.58,0,0,1-.18-.25l-2.15-5.28h-8.92L266.64,145a.51.51,0,0,1-.18.24.46.46,0,0,1-.3.11h-1l7.44-18.16h1.3Zm-12.15-6.6h8.14l-3.71-9.18c-.06-.14-.12-.31-.18-.49s-.12-.38-.18-.59c-.06.21-.12.4-.18.59l-.18.51Z"/><path class="cls-3" d="M294.58,127.21v1.11H288.2v17.05h-1.31V128.32h-6.41v-1.11Z"/><path class="cls-3" d="M309.92,145.37h-1a.46.46,0,0,1-.29-.1.58.58,0,0,1-.18-.25l-2.14-5.28h-8.92L295.24,145a.69.69,0,0,1-.18.24.49.49,0,0,1-.31.11h-1l7.43-18.16h1.31Zm-12.16-6.6h8.14l-3.71-9.18c-.06-.14-.12-.31-.18-.49s-.12-.38-.18-.59c-.06.21-.12.4-.18.59l-.18.51Z"/><path class="cls-3" d="M323.51,127a4.7,4.7,0,0,1,1.63.29,4.59,4.59,0,0,1,1.34.8,3.93,3.93,0,0,1,.91,1.16,3.23,3.23,0,0,1,.37,1.38l-.32.08a2.59,2.59,0,0,1-.47.06.28.28,0,0,1-.19-.07.54.54,0,0,1-.13-.22,4,4,0,0,0-.31-.77,3,3,0,0,0-.59-.82,3,3,0,0,0-2.24-.93,3.92,3.92,0,0,0-1.4.24,3.13,3.13,0,0,0-1.08.67,3,3,0,0,0-.7,1,3.37,3.37,0,0,0-.25,1.29,4.05,4.05,0,0,0,.54,2,9.49,9.49,0,0,0,1.67,2.06l5.72,5.65a9.22,9.22,0,0,0,1.36-3.86.48.48,0,0,1,.11-.26.25.25,0,0,1,.23-.1h.7a8.29,8.29,0,0,1-.45,2.48,10.23,10.23,0,0,1-1.23,2.45l3.83,3.75h-1.15a1,1,0,0,1-.37-.06.89.89,0,0,1-.34-.23l-2.64-2.58a8.7,8.7,0,0,1-1.27,1.23,7.86,7.86,0,0,1-1.5,1,8.83,8.83,0,0,1-1.72.64,8.18,8.18,0,0,1-1.94.23,5.86,5.86,0,0,1-1.89-.32,5.13,5.13,0,0,1-1.68-.94,4.86,4.86,0,0,1-1.19-1.53,4.43,4.43,0,0,1-.46-2.06,4.65,4.65,0,0,1,.34-1.77,5.59,5.59,0,0,1,.91-1.54,6.87,6.87,0,0,1,1.37-1.25,8.51,8.51,0,0,1,1.72-.9,8.47,8.47,0,0,1-1.37-2,4.88,4.88,0,0,1-.45-2.07,4.36,4.36,0,0,1,.32-1.67,4,4,0,0,1,.93-1.32,4.36,4.36,0,0,1,1.45-.89A5.33,5.33,0,0,1,323.51,127Zm-5.85,13.64a3.73,3.73,0,0,0,.37,1.72,3.87,3.87,0,0,0,1,1.23,4.29,4.29,0,0,0,1.34.74,4.68,4.68,0,0,0,1.45.24,6.65,6.65,0,0,0,1.7-.21,6.36,6.36,0,0,0,1.51-.57,7,7,0,0,0,1.28-.86,8.63,8.63,0,0,0,1.07-1.11L321.48,136a.93.93,0,0,1-.14-.14,7.78,7.78,0,0,0-1.53.86,6.22,6.22,0,0,0-1.17,1.11,5,5,0,0,0-.73,1.32A4.27,4.27,0,0,0,317.66,140.64Z"/><path class="cls-3" d="M218.86,172.25h-4.61v-9.54h-9.77v9.54h-4.61V150.09h4.61v9.41h9.77v-9.41h4.61Z"/><path class="cls-3" d="M242.91,172.25h-3.56a1.55,1.55,0,0,1-1-.28,1.72,1.72,0,0,1-.56-.72l-1.5-4.24h-8.83l-1.5,4.24a1.78,1.78,0,0,1-.53.69,1.46,1.46,0,0,1-1,.31h-3.59l8.66-22.16h4.69Zm-14.3-8.41h6.6l-2.4-6.79c-.14-.35-.29-.77-.45-1.25s-.31-1-.47-1.54c-.14.56-.29,1.08-.44,1.56s-.3.91-.44,1.26Z"/><path class="cls-3" d="M264.83,161.16a12,12,0,0,1-.81,4.47,10.32,10.32,0,0,1-2.31,3.51,10.57,10.57,0,0,1-3.59,2.29,12.52,12.52,0,0,1-4.64.82H245V150.09h8.52a12.52,12.52,0,0,1,4.64.82,10.59,10.59,0,0,1,3.59,2.3,10.32,10.32,0,0,1,2.31,3.51A11.85,11.85,0,0,1,264.83,161.16Zm-4.7,0a10.14,10.14,0,0,0-.46-3.13,6.63,6.63,0,0,0-1.32-2.35,5.65,5.65,0,0,0-2.08-1.48,7,7,0,0,0-2.79-.52h-3.91v15h3.91a7.23,7.23,0,0,0,2.79-.51,5.54,5.54,0,0,0,2.08-1.48,6.76,6.76,0,0,0,1.32-2.36A10.23,10.23,0,0,0,260.13,161.16Z"/><path class="cls-3" d="M289.63,161.16a12.1,12.1,0,0,1-.82,4.51,10.36,10.36,0,0,1-2.31,3.59,10.64,10.64,0,0,1-3.58,2.38,13,13,0,0,1-9.29,0,10.88,10.88,0,0,1-3.59-2.38,10.36,10.36,0,0,1-2.31-3.59,12.79,12.79,0,0,1,0-9,10.41,10.41,0,0,1,2.31-3.58,10.7,10.7,0,0,1,3.59-2.37,12.84,12.84,0,0,1,9.29,0,10.35,10.35,0,0,1,3.58,2.38,10.46,10.46,0,0,1,2.31,3.59A12,12,0,0,1,289.63,161.16Zm-4.69,0a9.75,9.75,0,0,0-.46-3.12,6.72,6.72,0,0,0-1.32-2.35,5.88,5.88,0,0,0-2.09-1.49,7.23,7.23,0,0,0-2.79-.51,7.31,7.31,0,0,0-2.8.51,5.83,5.83,0,0,0-2.1,1.49,6.42,6.42,0,0,0-1.32,2.35,10.88,10.88,0,0,0,0,6.26,6.42,6.42,0,0,0,1.32,2.35,5.78,5.78,0,0,0,2.1,1.47,7.31,7.31,0,0,0,2.8.51,7.23,7.23,0,0,0,2.79-.51,5.83,5.83,0,0,0,2.09-1.47,6.72,6.72,0,0,0,1.32-2.35A9.83,9.83,0,0,0,284.94,161.16Z"/><path class="cls-3" d="M314.41,161.16a12.1,12.1,0,0,1-.82,4.51,10.49,10.49,0,0,1-2.3,3.59,10.78,10.78,0,0,1-3.59,2.38,13,13,0,0,1-9.29,0,10.88,10.88,0,0,1-3.59-2.38,10.36,10.36,0,0,1-2.31-3.59,12.79,12.79,0,0,1,0-9,10.41,10.41,0,0,1,2.31-3.58,10.7,10.7,0,0,1,3.59-2.37,12.84,12.84,0,0,1,9.29,0,10.39,10.39,0,0,1,5.89,6A12,12,0,0,1,314.41,161.16Zm-4.69,0a9.75,9.75,0,0,0-.46-3.12,6.42,6.42,0,0,0-1.32-2.35,5.8,5.8,0,0,0-2.09-1.49,7.23,7.23,0,0,0-2.79-.51,7.31,7.31,0,0,0-2.8.51,5.83,5.83,0,0,0-2.1,1.49,6.72,6.72,0,0,0-1.32,2.35,10.88,10.88,0,0,0,0,6.26,6.72,6.72,0,0,0,1.32,2.35,5.78,5.78,0,0,0,2.1,1.47,7.31,7.31,0,0,0,2.8.51,7.23,7.23,0,0,0,2.79-.51,5.75,5.75,0,0,0,2.09-1.47,6.42,6.42,0,0,0,1.32-2.35A9.83,9.83,0,0,0,309.72,161.16Z"/><path class="cls-3" d="M322.35,164.63v7.62h-4.58V150.09h7.49a12.71,12.71,0,0,1,3.93.53,7.43,7.43,0,0,1,2.73,1.49,5.87,5.87,0,0,1,1.58,2.27,7.86,7.86,0,0,1,.51,2.86,8.24,8.24,0,0,1-.53,3,6.16,6.16,0,0,1-1.62,2.34,7.62,7.62,0,0,1-2.74,1.52,12.4,12.4,0,0,1-3.86.54Zm0-3.51h2.91a4.21,4.21,0,0,0,3.15-1,3.91,3.91,0,0,0,1-2.84,4.31,4.31,0,0,0-.25-1.51,3,3,0,0,0-.76-1.16,3.39,3.39,0,0,0-1.29-.74,6,6,0,0,0-1.85-.26h-2.91Z"/></svg>