<svg id="Layer_1" data-name="Layer 1" xmlns="http://www.w3.org/2000/svg" viewBox="0 0 355 189.1"><defs><style>.cls-4{opacity:.6}.cls-5{fill:#7a6e14}.cls-6{fill:#a6daed}.cls-7{fill:#fff}</style></defs><path fill="#4e89a8" d="M0 0h355v189.1H0z"/><path d="M64.1 116c-4.3 2.6-8 4.5-11.2 6.8-1.7 1.2-3.6 3-4 4.9-.7 3-1 6 3.5 7.9 8.6 3.6 12.2 12 10 21A17.6 17.6 0 0 1 45.4 170a18 18 0 0 1-17.9-13.5c-2-8.3 1.5-16.8 9.2-20.4 3.7-1.7 5-3.7 5-7.8.1-4.5-2.8-4.7-5.6-6-9.2-4.1-14.2-11.4-14.2-21.4s4.9-17.3 14-21.5c2.7-1.3 5.8-1.3 5.7-5.9 0-4-1-6.1-4.9-8-7.6-3.5-11-11.8-9.2-20.3A18 18 0 0 1 44 31.6c8.5-.4 15.8 4.5 18.3 12.1 2.6 8-.1 17.7-7.5 21-6.4 2.8-6.6 6.8-5.8 11.7 4.6 2.9 8.7 6 13.2 8.1 1.6.8 4.7-.4 6.3-1.7a8 8 0 0 0 2.7-5.7c-.2-7.4 2.4-13.4 8.7-17.3 6-3.7 12.3-3.7 18.4-.4 8.6 4.7 11.7 16 6.8 24.7s-16.6 12.2-25.2 6.3c-3.8-2.6-6.2-2-9.8-.1-4.2 2.2-2 5-1.8 8a26.4 26.4 0 0 1-.1 5.5c-.4 2.7-2 5.5 1.9 7.3 3.2 1.6 5.3 3.2 9.2.3 6.8-5.2 16.9-3.8 22.8 2a18.6 18.6 0 0 1 2.8 22.2 18 18 0 0 1-21 8 17.3 17.3 0 0 1-12.4-19c1-6.9-4.9-6-7.3-8.6zM44.7 88a12.9 12.9 0 0 0-12.2 13c.2 6.8 6.2 12.6 12.8 12.4a12.9 12.9 0 0 0 12.2-13A13 13 0 0 0 44.7 88zm.2-47.2a9 9 0 0 0-8.6 8.7 8.7 8.7 0 0 0 8.5 8.8 8.8 8.8 0 1 0 .1-17.5zM89.5 135a8.7 8.7 0 0 0 8.5-8.7 8.8 8.8 0 0 0-9.3-8.6 8.7 8.7 0 0 0 .8 17.3zm-44.6 25.7a8.8 8.8 0 1 0-.1-17.5 8.7 8.7 0 0 0-8.5 8.8 9 9 0 0 0 8.6 8.7zM98 75.3a8.7 8.7 0 0 0-8.5-8.8 8.7 8.7 0 1 0-.2 17.4 8.8 8.8 0 0 0 8.7-8.6z" fill="#c9bb65"/><g opacity=".3"><g class="cls-4"><path class="cls-5" d="M54.1 136.3c.4 1.4 1.4 2.6 3.6 3.5l1.5.7a17.1 17.1 0 0 0-5.1-4.2z"/></g><g class="cls-4"><path class="cls-5" d="M94.8 139.3a8.6 8.6 0 0 0 2.2-17 8.4 8.4 0 0 1 1 4 8.7 8.7 0 0 1-11.1 8.3 8.7 8.7 0 0 0 7.9 4.7z"/></g><g class="cls-4"><path class="cls-5" d="M50.3 165a8.7 8.7 0 0 0 2.3-17.2 8.4 8.4 0 0 1 1 4.4 8.9 8.9 0 0 1-8.7 8.5 8 8 0 0 1-2.1-.3 8.8 8.8 0 0 0 7.5 4.6z"/></g><g class="cls-4"><path class="cls-5" d="M50.7 117.8a12.9 12.9 0 0 0 12.2-13A13 13 0 0 0 55 93.3a12.5 12.5 0 0 1 2.5 7.2 12.9 12.9 0 0 1-12.2 13 11.5 11.5 0 0 1-5-1 12.5 12.5 0 0 0 10.4 5.3z"/></g><g class="cls-4"><path class="cls-5" d="M50.1 62.6a8.8 8.8 0 0 0 9-9 9 9 0 0 0-6.5-8.2 8.6 8.6 0 0 1 1 4 8.8 8.8 0 0 1-8.8 9 8.7 8.7 0 0 1-2-.4 8.6 8.6 0 0 0 7.3 4.6z"/></g><g class="cls-4"><path class="cls-5" d="M97 71.2a8.4 8.4 0 0 1 1 4.1 8.7 8.7 0 0 1-11.1 8.2 8.7 8.7 0 0 0 7.8 4.6 8.8 8.8 0 0 0 8.7-8.5 8.7 8.7 0 0 0-6.4-8.4z"/></g><g class="cls-4"><path class="cls-5" d="M32.8 120.6a22 22 0 0 1-5.7-15.5c0-10 5-17.3 14-21.5 2.8-1.2 6-1.3 5.8-5.8-.1-4-1-6.2-4.9-8l-1.2-.7a10.9 10.9 0 0 1 .8 4.4c0 4.5-3 4.6-5.8 5.8a22.2 22.2 0 0 0-14 21.5c0 8.8 3.9 15.5 11 19.8z"/></g><g class="cls-4"><path class="cls-5" d="M32.8 160.7c-2-8.3 1.5-16.8 9.1-20.4 3.8-1.7 5-3.8 5-7.8.1-4.5-2.7-4.7-5.4-6a7.2 7.2 0 0 1 .1 1.7c-.1 4-1.3 6-5 7.8-7.7 3.6-11.1 12-9.2 20.4a17.5 17.5 0 0 0 9 11.4 16.8 16.8 0 0 1-3.6-7.1z"/></g><g class="cls-4"><path class="cls-5" d="M75.3 115.4c3.2 1.6 5.4 3.2 9.2.3a17.5 17.5 0 0 1 18.6-1 17 17 0 0 0-1.1-1.4c-6-5.7-16-7-22.8-1.9-2.6 2-4.5 1.9-6.4 1 .1 1.2.8 2.2 2.5 3z"/></g><g class="cls-4"><path class="cls-5" d="M76.7 128.8c.8-5.4-2.7-6-5.4-7.3a7.8 7.8 0 0 1 .1 3 17.2 17.2 0 0 0 9.2 17.8 17 17 0 0 1-3.9-13.5z"/></g><g class="cls-4"><path class="cls-5" d="M62.1 84.5a62.7 62.7 0 0 1-8-4.7l.1.8c4.6 3 8.7 6 13.3 8.2 1.5.8 4.7-.4 6.3-1.7a8 8 0 0 0 2.7-5.7C76.3 74 78.8 68 85.2 64a17.5 17.5 0 0 1 18-.5 16.8 16.8 0 0 0-5-4.1 17.6 17.6 0 0 0-18.4.3c-6.3 4-8.9 10-8.7 17.4a8 8 0 0 1-2.7 5.7c-1.6 1.3-4.7 2.5-6.3 1.7z"/></g><g class="cls-4"><path class="cls-5" d="M36 65.2a18.3 18.3 0 0 1-3.3-15.7A18 18 0 0 1 49.3 36 18.9 18.9 0 0 1 59 38a18.3 18.3 0 0 0-15-6.4 18 18 0 0 0-16.6 13.6c-1.8 8.2 1.4 16.3 8.7 20z"/></g></g><path class="cls-6" d="M153.4 25.5v6.1h-2V17h4.1a9 9 0 0 1 2.4.3 4.6 4.6 0 0 1 1.7.8 3.2 3.2 0 0 1 1 1.3 4.4 4.4 0 0 1 .3 1.7 4.3 4.3 0 0 1-.2 1.4 3.8 3.8 0 0 1-.7 1.2 4.2 4.2 0 0 1-1.2 1 5.6 5.6 0 0 1-1.5.5 2 2 0 0 1 .7.6l4.2 5.9h-1.7a.9.9 0 0 1-.8-.5l-3.8-5.2a1 1 0 0 0-.4-.3 1.2 1.2 0 0 0-.6-.2zm0-1.5h2a5 5 0 0 0 1.6-.2 3.1 3.1 0 0 0 1.1-.6 2.5 2.5 0 0 0 .7-.9 3 3 0 0 0 .2-1.2 2.3 2.3 0 0 0-.9-2 4.2 4.2 0 0 0-2.6-.6h-2.1zM173.4 17v1.6h-7v4.9h5.7V25h-5.7v5h7v1.6h-9V17zM188.3 31.6h-1.5a.7.7 0 0 1-.4-.1.7.7 0 0 1-.3-.4l-1.3-3.5h-6.6l-1.4 3.5a.8.8 0 0 1-.2.4.6.6 0 0 1-.5.1h-1.5l5.9-14.6h2zm-9.6-5.4h5.5l-2.3-6a12.7 12.7 0 0 1-.4-1.4l-.3.8-.2.6zM192.2 30h6.3v1.6h-8.3V17h2zM198 24.7h5v1.6h-5zM214 17v1.7h-4.8v13h-2v-13h-4.8V17zM218.4 31.6h-2V17h2zM229.8 26.8l.2.6a9 9 0 0 1 .4-1.1l5-9a.6.6 0 0 1 .3-.3 1.1 1.1 0 0 1 .4 0h1.5v14.6h-1.7V20.8 20l-5 9.1a.8.8 0 0 1-.8.5h-.2a.8.8 0 0 1-.8-.5l-5.1-9.2v11.8h-1.7V17h1.5a1.1 1.1 0 0 1 .4 0 .6.6 0 0 1 .3.3l5 9a3 3 0 0 1 .3.5zM250.2 17v1.6h-7v4.9h5.7V25h-5.7v5h7v1.6h-9V17zM163.3 53.6h-1.6a.7.7 0 0 1-.4 0 .8.8 0 0 1-.2-.4l-1.4-3.6H153l-1.4 3.6a.8.8 0 0 1-.2.3.7.7 0 0 1-.4.1h-1.6l5.9-14.6h2zm-9.6-5.4h5.4l-2.3-6a12 12 0 0 1-.4-1.4l-.2.8a6.3 6.3 0 0 1-.2.6zM166.5 39a1 1 0 0 1 .3.3l8.5 11V50 39h1.7v14.6h-1a1 1 0 0 1-.4 0 1 1 0 0 1-.3-.3l-8.5-11v11.4h-1.7V39h1a.8.8 0 0 1 .4 0zM192.7 53.6H191a.7.7 0 0 1-.4 0 .8.8 0 0 1-.2-.4l-1.4-3.6h-6.6l-1.4 3.6a.8.8 0 0 1-.2.3.7.7 0 0 1-.5.1H179l5.9-14.6h2zm-9.6-5.4h5.4l-2.3-6a10.3 10.3 0 0 1-.4-1.4l-.2.8a6.3 6.3 0 0 1-.2.6zM196.5 52h6.3v1.7h-8.3V39h2zM208.5 47.8v5.9h-2v-5.9l-5.3-8.8h1.7a.6.6 0 0 1 .4.1 1.2 1.2 0 0 1 .3.4l3.3 5.7a5.4 5.4 0 0 1 .4.6l.2.7.3-.7a5.2 5.2 0 0 1 .3-.6l3.4-5.7a1.4 1.4 0 0 1 .2-.3.6.6 0 0 1 .4-.2h1.8zM225.7 39v1.7H221v13h-2v-13h-4.8V39zM230.2 53.6h-2V39h2zM244.4 50.6a.4.4 0 0 1 .3.2l.8.8a6.4 6.4 0 0 1-2.2 1.6 7.5 7.5 0 0 1-3 .6 7.4 7.4 0 0 1-3-.5 6.3 6.3 0 0 1-2.2-1.6 6.7 6.7 0 0 1-1.4-2.3 8.8 8.8 0 0 1-.5-3 8.3 8.3 0 0 1 .6-3 7 7 0 0 1 1.5-2.4 6.8 6.8 0 0 1 2.3-1.5 8 8 0 0 1 3-.6 7 7 0 0 1 2.8.5 7 7 0 0 1 2 1.4l-.6.9a1 1 0 0 1-.1.1.5.5 0 0 1-.3.1.5.5 0 0 1-.3 0l-.3-.3a4.5 4.5 0 0 0-.5-.3 4.4 4.4 0 0 0-.7-.3 6.9 6.9 0 0 0-.8-.3 6.6 6.6 0 0 0-1.2 0 5.6 5.6 0 0 0-2.2.3 4.8 4.8 0 0 0-1.6 1.2 5.4 5.4 0 0 0-1.1 1.8 7.7 7.7 0 0 0 0 4.8 5.5 5.5 0 0 0 1 1.9 4.6 4.6 0 0 0 1.6 1.1 5.1 5.1 0 0 0 2 .4 8.3 8.3 0 0 0 1.2 0 4.8 4.8 0 0 0 1-.3 4.6 4.6 0 0 0 .8-.4 7.7 7.7 0 0 0 .8-.6.5.5 0 0 1 .3-.3zM255.6 41.3a.8.8 0 0 1-.2.2.5.5 0 0 1-.2 0 .7.7 0 0 1-.4 0 6 6 0 0 0-.6-.5 4 4 0 0 0-.9-.4 4 4 0 0 0-2.4 0 2.4 2.4 0 0 0-.8.5 2 2 0 0 0-.5.8 2.4 2.4 0 0 0-.2.8 1.6 1.6 0 0 0 .3 1 2.6 2.6 0 0 0 .8.7 5.6 5.6 0 0 0 1.1.5l1.3.5a11 11 0 0 1 1.3.5 4.8 4.8 0 0 1 1.1.7 3.3 3.3 0 0 1 .8 1 3.5 3.5 0 0 1 .3 1.6 5 5 0 0 1-.3 1.8 4.2 4.2 0 0 1-1 1.5 4.6 4.6 0 0 1-1.5 1 5.6 5.6 0 0 1-2 .3 6.5 6.5 0 0 1-2.7-.5 6 6 0 0 1-2-1.4l.6-1a.7.7 0 0 1 .2-.1.5.5 0 0 1 .3-.1.8.8 0 0 1 .4.2 7 7 0 0 0 .7.5 5 5 0 0 0 1 .5 4 4 0 0 0 1.5.3 3.8 3.8 0 0 0 1.2-.2 2.6 2.6 0 0 0 1-.6 2.3 2.3 0 0 0 .6-.8 2.8 2.8 0 0 0 .2-1.1 1.8 1.8 0 0 0-.3-1.1 2.6 2.6 0 0 0-.8-.7 5.3 5.3 0 0 0-1.2-.5l-1.3-.4-1.2-.5a4.5 4.5 0 0 1-1.2-.7 3.3 3.3 0 0 1-.7-1.1 4.3 4.3 0 0 1 0-3.2 3.9 3.9 0 0 1 .8-1.2 4.4 4.4 0 0 1 1.4-1 5.3 5.3 0 0 1 2-.3 6.4 6.4 0 0 1 2.2.4 5.1 5.1 0 0 1 1.8 1.1zM261.3 39h1.6a.7.7 0 0 1 .4.1.7.7 0 0 1 .3.4l3 10.2a4.8 4.8 0 0 1 .1.6l.2.6.1-.6a4.6 4.6 0 0 1 .2-.6l3.4-10.2a.7.7 0 0 1 .2-.4.7.7 0 0 1 .5-.1h.6a.7.7 0 0 1 .4.1.8.8 0 0 1 .2.4l3.5 10.1a8.2 8.2 0 0 1 .3 1.3l.1-.7a4.8 4.8 0 0 1 .2-.6l3-10.1a.7.7 0 0 1 .2-.4.7.7 0 0 1 .4-.1h1.6l-4.6 14.7h-1.8l-3.7-11.2a5.1 5.1 0 0 1-.2-.8v.4l-.2.4-3.7 11.2h-1.8zM286.1 53.6h-2V39h2zM300 39v1.7h-4.7v13h-2v-13h-4.8V39zM314 53.6h-2V47h-7.9v6.7h-2V39h2v6.5h7.9V39h2z"/><path class="cls-7" d="M166 80.6h-3.3a1.5 1.5 0 0 1-1-.3 1.3 1.3 0 0 1-.4-.7l-1.1-3.2h-7l-1.2 3.2a1.4 1.4 0 0 1-.5.7 1.4 1.4 0 0 1-.9.3h-3.3l7.1-18.5h4.4zm-11.9-7h5l-1.7-5.1-.4-1.1-.4-1.5a29.1 29.1 0 0 1-.8 2.6zM171.8 74.4v6.2h-4.3V62h6.5a10.8 10.8 0 0 1 3.4.5 6.4 6.4 0 0 1 2.3 1.2 5 5 0 0 1 1.3 2 6.5 6.5 0 0 1 .4 2.3 7.2 7.2 0 0 1-.4 2.6 5 5 0 0 1-1.4 2 6.4 6.4 0 0 1-2.3 1.3 10.6 10.6 0 0 1-3.3.4zm0-3.2h2.2a3.1 3.1 0 0 0 2.4-.8 3.2 3.2 0 0 0 .7-2.3 3.5 3.5 0 0 0-.1-1.1 2.3 2.3 0 0 0-.6-1 2.6 2.6 0 0 0-1-.5 4.1 4.1 0 0 0-1.4-.2h-2.3zM198.7 80.6h-3.4a1.5 1.5 0 0 1-.9-.3 1.3 1.3 0 0 1-.5-.7l-1-3.2h-7l-1.2 3.2a1.4 1.4 0 0 1-.4.7 1.4 1.4 0 0 1-1 .3H180l7.2-18.5h4.3zm-11.9-7h5l-1.7-5.1-.4-1.1-.4-1.5-.4 1.5-.4 1.1zM211.8 75.8a1.2 1.2 0 0 1 .3 0 1 1 0 0 1 .3.2l1.7 1.8a7.2 7.2 0 0 1-2.8 2.2 9.8 9.8 0 0 1-4 .7 9.4 9.4 0 0 1-3.8-.7 8.2 8.2 0 0 1-2.8-2 8.8 8.8 0 0 1-1.8-3 11 11 0 0 1-.6-3.7 10 10 0 0 1 .7-3.8 8.7 8.7 0 0 1 2-3 9 9 0 0 1 3-2 10.7 10.7 0 0 1 4-.6 10 10 0 0 1 2 .2 8.8 8.8 0 0 1 1.7.5 7.9 7.9 0 0 1 1.4.8 6.5 6.5 0 0 1 1.2 1l-1.4 1.9a2 2 0 0 1-.3.3.8.8 0 0 1-.6.2.9.9 0 0 1-.4-.1 5 5 0 0 1-.4-.3c-.2 0-.4-.2-.5-.3a4.2 4.2 0 0 0-.7-.3 5.3 5.3 0 0 0-.9-.3 5.7 5.7 0 0 0-1.1 0 5.3 5.3 0 0 0-2.2.4 4.6 4.6 0 0 0-1.6 1.1 5.6 5.6 0 0 0-1 1.9 7.2 7.2 0 0 0-.5 2.4 7.6 7.6 0 0 0 .4 2.5 5.8 5.8 0 0 0 1 1.9 4.5 4.5 0 0 0 1.6 1.1 4.7 4.7 0 0 0 1.9.4 8.7 8.7 0 0 0 1 0 5 5 0 0 0 1-.2 4 4 0 0 0 .7-.3 5.1 5.1 0 0 0 .8-.6 1.5 1.5 0 0 1 .3-.2.8.8 0 0 1 .4-.1zM232.2 80.6h-4.3v-7.8h-7.5v7.8H216V62h4.3v7.7h7.5v-7.7h4.3zM247.1 62.1v3.3h-7.6v4.3h5.8v3.2h-5.8v4.4h7.6v3.3h-11.9V62zM258.7 69.6h.7a1.6 1.6 0 0 0 1.4-.6l4.1-6a1.8 1.8 0 0 1 .8-.7 2.8 2.8 0 0 1 1-.2h3.8l-5.5 7.5a3.7 3.7 0 0 1-.6.6 4.3 4.3 0 0 1-.6.5 3.3 3.3 0 0 1 .8.5 3.2 3.2 0 0 1 .8.8l5.6 8.6h-3.8a2.8 2.8 0 0 1-.6 0 1.3 1.3 0 0 1-.5-.2 1.2 1.2 0 0 1-.3-.2 1.8 1.8 0 0 1-.3-.4l-4.2-6.4a1.3 1.3 0 0 0-.6-.5 2.6 2.6 0 0 0-.9-.1h-1v7.8h-4.3V62.1h4.3zM289.7 80.6h-3.3a1.5 1.5 0 0 1-1-.3 1.3 1.3 0 0 1-.4-.7l-1.1-3.2h-7l-1.1 3.2a1.4 1.4 0 0 1-.5.7 1.4 1.4 0 0 1-1 .3H271l7.1-18.5h4.4zm-11.9-7h5l-1.6-5.1-.4-1.1-.4-1.5a29.1 29.1 0 0 1-.9 2.6zM303 62.1v3.3h-7.5v4.7h6.3v3.3h-6.3v7.2h-4.3V62zM309.6 69.6h.7a1.5 1.5 0 0 0 1.4-.6l4.1-6a1.8 1.8 0 0 1 .8-.7 2.8 2.8 0 0 1 1-.2h3.8l-5.5 7.5a3.4 3.4 0 0 1-.6.7 4.3 4.3 0 0 1-.6.4 3.3 3.3 0 0 1 .8.5 3.2 3.2 0 0 1 .8.8l5.5 8.6H318a2.9 2.9 0 0 1-.6 0 1.5 1.5 0 0 1-.5-.2 1.2 1.2 0 0 1-.3-.2 2.4 2.4 0 0 1-.3-.3l-4.2-6.5a1.3 1.3 0 0 0-.5-.5 2.6 2.6 0 0 0-1-.1h-1v7.8h-4.3V62.1h4.3zM340.6 80.6h-3.3a1.5 1.5 0 0 1-1-.3 1.3 1.3 0 0 1-.4-.7l-1.1-3.2h-7l-1.1 3.2a1.4 1.4 0 0 1-.5.7 1.4 1.4 0 0 1-1 .3H322l7.2-18.5h4.4zm-11.9-7h5l-1.7-5.1-.3-1.1-.5-1.5a29.1 29.1 0 0 1-.8 2.6z"/></svg>