<svg id="Layer_1" data-name="Layer 1" xmlns="http://www.w3.org/2000/svg" viewBox="0 0 355 189.1"><defs><style>.cls-1{fill:#dd914b}.cls-2{fill:none}.cls-4{isolation:isolate}.cls-12{fill:#7f6720}.cls-14{fill:#8e7323}.cls-15{fill:#896f22}.cls-16{fill:#846b21}.cls-20{fill:#054c6e}.cls-22{fill:#06557b}.cls-23{fill:#055276}.cls-24{fill:#054f72}.cls-31{fill:#fff}</style><linearGradient id="linear-gradient" x1="37.9" y1="234.9" x2="317.1" y2="-44.4" gradientUnits="userSpaceOnUse"><stop offset="0" stop-color="#064260"/><stop offset="1" stop-color="#094d73"/></linearGradient><clipPath id="clip-path"><path class="cls-1" d="M109.8 70.6h-8a11.7 11.7 0 0 0 1.8-.2c8.8-1.4 17.7-2 26.5-3a19.1 19.1 0 0 1 2.2-.2h8.1a19.1 19.1 0 0 0-2.2.2c-8.9 1-17.8 1.6-26.5 3a11.7 11.7 0 0 1-1.9.2z"/></clipPath><clipPath id="clip-path-2"><path class="cls-1" d="M113 127.7h-8c-2.6-7.8-4.6-14.5-7.2-21-1.7-4-.8-6.3 2.5-9 6-5 11.8-10.3 18.9-16.7h8c-7 6.3-12.8 11.8-18.9 16.8-3.3 2.6-4.1 5-2.4 9 2.6 6.4 4.5 13.2 7.2 20.9z"/></clipPath><clipPath id="clip-path-3"><path class="cls-1" d="M101.2 84H93c-3 0-4.6-1.6-5.8-5-2.3-6.3-5-12.4-8-19.4h8.1c3 7 5.7 13.1 8 19.4 1.1 3.4 2.7 5 5.8 5z"/></clipPath><clipPath id="clip-path-4"><path class="cls-1" d="M119.3 145h-8a13 13 0 0 1-5.6-1.4l-29.5-13.3a4.3 4.3 0 0 1-2.9-4.4c0-3.7 8.6-3.6 8.5-8.1h8c.1 4.5-8.4 4.4-8.4 8.1a4.3 4.3 0 0 0 2.8 4.3l29.6 13.4a13 13 0 0 0 5.5 1.4z"/></clipPath><clipPath id="clip-path-5"><path class="cls-1" d="M52 111.5h-8a1.7 1.7 0 0 1-1-.3c-7-4.6-15.4-7.6-20.6-14.8-4.3-6-1.9-12.5 5.8-14.4a202.7 202.7 0 0 1 25.6-4.7c4.8-.5 7.2-2.4 8.5-7.2 1.7-6.7 4.2-13.2 6.5-19.7a22 22 0 0 1 2.8-5.5c2.6-3.5 5.5-5.3 8.3-5.3H88c-2.8 0-5.7 1.7-8.3 5.2a22.2 22.2 0 0 0-2.8 5.6c-2.3 6.5-4.7 13-6.5 19.7-1.3 4.8-3.6 6.7-8.5 7.2A202.3 202.3 0 0 0 36.3 82c-7.7 2-10.1 8.4-5.7 14.4 5.1 7.2 13.5 10.2 20.5 14.9a1.7 1.7 0 0 0 1 .2z"/></clipPath><clipPath id="clip-path-6"><path class="cls-2" d="M76.8 141.2h-5.5a3 3 0 0 0 0-6h5.5a3 3 0 0 1 0 6z"/></clipPath><clipPath id="clip-path-7"><path class="cls-2" d="M76.7 115.3h-5c9 0 8.7-8.5 8.7-9h5c0 .5.3 9-8.7 9z"/></clipPath><clipPath id="clip-path-8"><path class="cls-2" d="M53.5 123.6h-5c0-8.2 7.8-8.3 8.3-8.3h5c-.5 0-8.3.1-8.3 8.3z"/></clipPath><clipPath id="clip-path-9"><path class="cls-2" d="M68.7 145.8h-5.1c-16.4 0-15.2-8-15.2-8.4h5c0 .5-1.2 8.4 15.3 8.4z"/></clipPath><clipPath id="clip-path-10"><path class="cls-2" d="M60 93.8h-6a3.2 3.2 0 0 0 3.2-3.3h6a3.2 3.2 0 0 1-3.2 3.3z"/></clipPath><clipPath id="clip-path-11"><path class="cls-2" d="M63.2 90.5h-6a3.2 3.2 0 0 0-3.2-3.2h6a3.2 3.2 0 0 1 3.2 3.2z"/></clipPath><clipPath id="clip-path-12"><path class="cls-2" d="M53.5 89.9h-5c0-.4-1-7 14.7-7h5c-15.7 0-14.8 6.6-14.7 7z"/></clipPath><clipPath id="clip-path-13"><path class="cls-2" d="M46.2 130h-5c-1.1 0-8.8-.6-8.8-15.7 0-14.2 7.7-15 9.6-15h5c-1.9 0-9.6.8-9.6 15 0 15.1 7.7 15.6 8.8 15.6z"/></clipPath></defs><path fill="url(#linear-gradient)" d="M-5-1.5h365v193.6H-5z"/><g class="cls-4"><g class="cls-4"><path class="cls-1" d="M109.8 70.6h-8a11.7 11.7 0 0 0 1.8-.2c8.8-1.4 17.7-2 26.5-3a19.1 19.1 0 0 1 2.2-.2h8.1a19.1 19.1 0 0 0-2.2.2c-8.9 1-17.8 1.6-26.5 3a11.7 11.7 0 0 1-1.9.2z"/><g class="cls-4" clip-path="url(#clip-path)"><path class="cls-1" d="M109.8 70.6h-8a11.7 11.7 0 0 0 1.8-.2c8.8-1.4 17.7-2 26.5-3a19.1 19.1 0 0 1 2.2-.2h8.1a19.1 19.1 0 0 0-2.2.2c-8.9 1-17.8 1.6-26.5 3a11.7 11.7 0 0 1-1.9.2"/></g></g><g class="cls-4"><path class="cls-1" d="M113 127.7h-8c-2.6-7.8-4.6-14.5-7.2-21-1.7-4-.8-6.3 2.5-9 6-5 11.8-10.3 18.9-16.7h8c-7 6.3-12.8 11.8-18.9 16.8-3.3 2.6-4.1 5-2.4 9 2.6 6.4 4.5 13.2 7.2 20.9z"/><g class="cls-4" clip-path="url(#clip-path-2)"><path class="cls-1" d="M113 127.7h-8c-2.6-7.8-4.6-14.5-7.2-21-1.7-4-.8-6.3 2.5-9 6-5 11.8-10.3 18.9-16.7h8c-7 6.3-12.8 11.8-18.9 16.8-3.3 2.6-4.1 5-2.4 9 2.6 6.4 4.5 13.1 7.2 20.9"/></g></g><g class="cls-4"><path class="cls-1" d="M101.2 84H93c-3 0-4.6-1.6-5.8-5-2.3-6.3-5-12.4-8-19.4h8.1c3 7 5.7 13.1 8 19.4 1.1 3.4 2.7 5 5.8 5z"/><g class="cls-4" clip-path="url(#clip-path-3)"><path class="cls-1" d="M101.2 84H93c-3 0-4.6-1.6-5.8-5-2.3-6.3-5-12.4-8-19.4h8.1c3 7 5.7 13.1 8 19.4 1.1 3.4 2.7 5 5.7 5"/></g></g><g class="cls-4"><path class="cls-1" d="M119.3 145h-8a13 13 0 0 1-5.6-1.4l-29.5-13.3a4.3 4.3 0 0 1-2.9-4.4c0-3.7 8.6-3.6 8.5-8.1h8c.1 4.5-8.4 4.4-8.4 8.1a4.3 4.3 0 0 0 2.8 4.3l29.6 13.4a13 13 0 0 0 5.5 1.4z"/><g class="cls-4" clip-path="url(#clip-path-4)"><path class="cls-1" d="M119.3 145h-8a13 13 0 0 1-5.6-1.4l-29.5-13.3a4.3 4.3 0 0 1-2.9-4.4c0-1.6 1.7-2.5 3.6-3.4h8c-1.8.9-3.5 1.8-3.5 3.4a4.3 4.3 0 0 0 2.8 4.3l29.6 13.4a13 13 0 0 0 5.5 1.4"/><path class="cls-1" d="M85 122.5h-8.2l.8-.4h8.1l-.8.4M85.7 122.1h-8c2-1 4.1-2 4-4.3h8.1c0 2.2-2 3.3-4 4.3"/></g></g><g class="cls-4"><path class="cls-1" d="M52 111.5h-8a1.7 1.7 0 0 1-1-.3c-7-4.6-15.4-7.6-20.6-14.8-4.3-6-1.9-12.5 5.8-14.4a202.7 202.7 0 0 1 25.6-4.7c4.8-.5 7.2-2.4 8.5-7.2 1.7-6.7 4.2-13.2 6.5-19.7a22 22 0 0 1 2.8-5.5c2.6-3.5 5.5-5.3 8.3-5.3H88c-2.8 0-5.7 1.7-8.3 5.2a22.2 22.2 0 0 0-2.8 5.6c-2.3 6.5-4.7 13-6.5 19.7-1.3 4.8-3.6 6.7-8.5 7.2A202.3 202.3 0 0 0 36.3 82c-7.7 2-10.1 8.4-5.7 14.4 5.1 7.2 13.5 10.2 20.5 14.9a1.7 1.7 0 0 0 1 .2z"/><g class="cls-4" clip-path="url(#clip-path-5)"><path class="cls-1" d="M52 111.5h-8a1.7 1.7 0 0 1-1-.3c-7-4.6-15.4-7.6-20.6-14.8-3.8-5.3-2.4-10.9 3-13.5h8.2c-5.5 2.6-6.8 8.2-3 13.5 5.2 7.2 13.5 10.2 20.6 14.8a1.7 1.7 0 0 0 1 .3"/><path class="cls-1" d="M33.6 83h-8a14.7 14.7 0 0 1 2.6-1q5.1-1.4 10.4-2.4h8q-5.2 1-10.3 2.3a14.7 14.7 0 0 0-2.7 1"/><path class="cls-1" d="M46.6 79.7h-8c5-1 10.1-1.8 15.2-2.4l1.3-.2h8.1l-1.3.2c-5.1.6-10.2 1.4-15.2 2.4M63.2 77.1h-8a11.1 11.1 0 0 0 2.6-.8H66a11 11 0 0 1-2.7.8M66 76.3h-8.1c2.2-1.1 3.5-3 4.4-6.2 1.7-6.7 4.2-13.2 6.5-19.7a22 22 0 0 1 2.8-5.5 13.6 13.6 0 0 1 5-4.5h8.1a13.7 13.7 0 0 0-5 4.5 22.2 22.2 0 0 0-2.8 5.5c-2.3 6.5-4.8 13-6.5 19.7-.9 3.2-2.2 5.1-4.5 6.2"/><path class="cls-1" d="M84.7 40.4h-8a7.8 7.8 0 0 1 1.9-.7h8a7.8 7.8 0 0 0-2 .7"/><path class="cls-1" d="M86.7 39.7h-8.1a6.6 6.6 0 0 1 1.3 0H88a6.5 6.5 0 0 0-1.3 0"/></g></g></g><path d="M88 39.6c3.1 0 6.2 2.2 8.3 6.6 3 6.4 5.8 13 8.2 19.7 1.1 3.2 2.5 4.7 5.3 4.7a11.7 11.7 0 0 0 1.9-.2c8.8-1.4 17.7-2 26.5-3a19.1 19.1 0 0 1 2.2-.2c3.3 0 6.3 1 7.8 4.6 1.8 4.2-1 7.3-3.8 10a601.6 601.6 0 0 1-22 19.5c-2.7 2.3-3 4.1-1.7 7.4 2.7 7 5 14.2 7.4 21.4 1.6 4.5 1.5 8.8-2.1 12.2a9.6 9.6 0 0 1-6.7 2.7 13 13 0 0 1-5.5-1.3c-5.8-2.8-23.7-10.8-29.6-13.4a4.3 4.3 0 0 1-2.8-4.4c0-3.7 8.5-3.6 8.4-8.1l23.3 9.9c-2.7-7.7-4.6-14.4-7.3-20.9-1.6-4-.8-6.4 2.5-9 6.1-5 11.8-10.4 19-16.8-9.2 1-16.7 1.6-24.2 2.9a11.9 11.9 0 0 1-2 .1c-3 0-4.6-1.5-5.8-5-2.2-6.2-5-12.3-8-19.3a74.8 74.8 0 0 0-6.7 19.2c-1.6 6.7-5 9.2-11.4 9.7s-13 2-20.9 3.4L68 103.9c-4.5 3.4-9.7 4.8-14.4 7.3a3.2 3.2 0 0 1-1.4.3 1.7 1.7 0 0 1-1-.3c-7-4.6-15.4-7.6-20.6-14.8-4.3-6-1.9-12.5 5.8-14.4a202.3 202.3 0 0 1 25.6-4.7c4.8-.5 7.2-2.4 8.5-7.2 1.7-6.6 4.2-13.1 6.5-19.7a22.2 22.2 0 0 1 2.8-5.5c2.5-3.5 5.5-5.3 8.3-5.3z" fill="#f4b66c"/><path fill="#8d7223" d="M85.4 98.8h-5.1"/><path class="cls-12" d="M80.3 98.8h5v7.5h-5z"/><g class="cls-4"><g class="cls-4" clip-path="url(#clip-path-6)"><path class="cls-14" d="M76.8 141.2h-5.5a3.1 3.1 0 0 0 .6 0h5.4a3.2 3.2 0 0 1-.5 0"/><path class="cls-15" d="M77.3 141.2H72a3.2 3.2 0 0 0 .7-.3H78a3.2 3.2 0 0 1-.7.3"/><path class="cls-16" d="M78 141h-5.4a3 3 0 0 0 1.7-2.8 3 3 0 0 0-3-3h5.5a3 3 0 0 1 3 3A3 3 0 0 1 78 141"/></g></g><g class="cls-4"><g class="cls-4" clip-path="url(#clip-path-7)"><path class="cls-14" d="M76.7 115.3h-5a12.3 12.3 0 0 0 2.2-.2h5a12.4 12.4 0 0 1-2.1.2"/><path class="cls-15" d="M79 115.1h-5.1a8.4 8.4 0 0 0 2-.6h5a8.5 8.5 0 0 1-2 .6"/><path class="cls-16" d="M81 114.5h-5c4.6-2.2 4.4-7.8 4.4-8.2h5c0 .4.2 6-4.4 8.2"/></g></g><path class="cls-12" d="M48.4 123.6h5v13.9h-5z"/><g class="cls-4"><g class="cls-4" clip-path="url(#clip-path-8)"><path class="cls-16" d="M53.5 123.6h-5c0-4.3 2-6.3 4.2-7.3h5c-2.1 1-4.3 3-4.3 7.3"/><path class="cls-15" d="M57.7 116.3h-5a10.5 10.5 0 0 1 2.4-.8h5a10.3 10.3 0 0 0-2.3.8"/><path class="cls-14" d="M60.1 115.5h-5a9.8 9.8 0 0 1 1.7-.2h5a9.8 9.8 0 0 0-1.7.2"/></g></g><g class="cls-4"><g class="cls-4" clip-path="url(#clip-path-9)"><path class="cls-16" d="M68.7 145.8h-5.1c-16.4 0-15.2-8-15.2-8.4h5c0 .5-1.2 8.4 15.2 8.4"/></g></g><path class="cls-20" d="M63.4 97.1h5v2.2h-5z"/><g class="cls-4"><g class="cls-4" clip-path="url(#clip-path-10)"><path class="cls-22" d="M60 93.8h-6a2.9 2.9 0 0 0 .6 0h6a2.9 2.9 0 0 1-.6 0"/><path class="cls-23" d="M60.6 93.7h-6a3 3 0 0 0 .7-.2h6a3.2 3.2 0 0 1-.7.2"/><path class="cls-24" d="M61.1 93.5h-6a3.3 3.3 0 0 0 1.9-3h6a3.3 3.3 0 0 1-1.9 3"/></g></g><g class="cls-4"><g class="cls-4" clip-path="url(#clip-path-11)"><path class="cls-24" d="M63 90.5h-6a3.2 3.2 0 0 0-3.2-3.2h6a3.2 3.2 0 0 1 3.2 3.2"/></g></g><path class="cls-20" d="M53.5 97h-5V90h5V97z"/><g class="cls-4"><g class="cls-4" clip-path="url(#clip-path-12)"><path class="cls-24" d="M53.5 89.9h-5c0-.3-.5-3.2 3.7-5.2h5c-4.2 2-3.8 5-3.7 5.2"/><path class="cls-23" d="M57.2 84.7h-5a16.3 16.3 0 0 1 4-1.2h5a16.3 16.3 0 0 0-4 1.2"/><path class="cls-22" d="M61.2 83.5h-5a37.8 37.8 0 0 1 7-.6h5a37.8 37.8 0 0 0-7 .6"/></g></g><path fill="#06547a" d="M63.4 99.3h5.1"/><g class="cls-4"><g class="cls-4" clip-path="url(#clip-path-13)"><path class="cls-24" d="M46.2 130h-5c-1.1 0-8.8-.6-8.8-15.7 0-9.3 3.3-13 6.2-14.3h5c-2.8 1.4-6.1 5-6.1 14.3 0 15.1 7.6 15.6 8.7 15.6"/><path class="cls-23" d="M43.6 100h-5a8 8 0 0 1 2-.7h5a8 8 0 0 0-2 .7"/><path class="cls-22" d="M45.6 99.4h-5a7.3 7.3 0 0 1 1.4-.2h5a7.3 7.3 0 0 0-1.4.2"/></g></g><path d="M90.6 98.8c1.1 0 8.8.5 8.8 15.7 0 14.1-7.7 15-9.6 15a3.6 3.6 0 0 1-.5 0h-21v2.2h15v7.2c0 .3 1 7-14.7 7-16.4 0-15.2-8-15.2-8.4v-14c0-8 7.9-8.2 8.4-8.2h14.9c8.9 0 8.6-8.5 8.6-9v-7.5zm-16.4 39.4A2.7 2.7 0 0 0 77 141a2.8 2.8 0 1 0-2.7-2.8" fill="#fed648"/><path d="M68.2 83c16.4 0 15.2 8 15.2 8.3v13.9c0 8-7.8 8.2-8.4 8.2H60.1c-8.9 0-8.6 8.6-8.6 9v7.5h-5.3c-1 0-8.7-.5-8.7-15.6 0-14.1 7.7-15 9.6-15h21.4V97h-15v-7.2c0-.4-1-7 14.7-7zm-5.6 7.5a2.7 2.7 0 1 0-2.7 2.8 2.7 2.7 0 0 0 2.7-2.8" fill="#089bde"/><path class="cls-31" d="M216.2 140v6.6h-4.6v-19.7h7a11.4 11.4 0 0 1 3.5.5 6.8 6.8 0 0 1 2.5 1.4 5.3 5.3 0 0 1 1.4 2 6.8 6.8 0 0 1 .5 2.5 7.3 7.3 0 0 1-.5 2.7 5.3 5.3 0 0 1-1.4 2.1 6.8 6.8 0 0 1-2.5 1.4 11.2 11.2 0 0 1-3.5.5zm0-3.5h2.4a3.3 3.3 0 0 0 2.5-.8 3.4 3.4 0 0 0 .8-2.4 3.7 3.7 0 0 0-.2-1.2 2.5 2.5 0 0 0-.6-1 2.8 2.8 0 0 0-1-.6 4.7 4.7 0 0 0-1.5-.2h-2.4zM238.7 139.1v7.5H234v-7.5L227 127h4a1.5 1.5 0 0 1 1 .3 2 2 0 0 1 .5.7l2.8 5.7.6 1.3.5 1.2a10.2 10.2 0 0 1 .5-1.2l.6-1.3 2.8-5.7a1.8 1.8 0 0 1 .2-.3 1.9 1.9 0 0 1 .3-.3 1.4 1.4 0 0 1 .4-.3 1.5 1.5 0 0 1 .5 0h4zM258.1 131a1.9 1.9 0 0 1-.4.4 1 1 0 0 1-.6.2 1.4 1.4 0 0 1-.7-.2l-.8-.5a6.6 6.6 0 0 0-1-.4 4.2 4.2 0 0 0-1.3-.2 2.9 2.9 0 0 0-2 .6 1.9 1.9 0 0 0-.5 1.4 1.3 1.3 0 0 0 .3 1 3 3 0 0 0 1 .7 11.2 11.2 0 0 0 1.4.5l1.7.6a14.9 14.9 0 0 1 1.6.6 5.2 5.2 0 0 1 1.4 1 4.8 4.8 0 0 1 1 1.5 5.3 5.3 0 0 1 .3 2.1 6.8 6.8 0 0 1-.4 2.6 5.9 5.9 0 0 1-1.4 2 6.5 6.5 0 0 1-2.2 1.4 8.3 8.3 0 0 1-3 .5 10 10 0 0 1-1.9-.1 11.6 11.6 0 0 1-1.8-.6 11.2 11.2 0 0 1-1.7-.8 7 7 0 0 1-1.4-1l1.4-2.2a1.1 1.1 0 0 1 .4-.4 1.2 1.2 0 0 1 .6-.1 1.5 1.5 0 0 1 .8.2l1 .6a7.5 7.5 0 0 0 1.1.6 4.5 4.5 0 0 0 1.6.2 3 3 0 0 0 2-.5 2 2 0 0 0 .6-1.8 1.6 1.6 0 0 0-.3-1 2.9 2.9 0 0 0-1-.8 8.8 8.8 0 0 0-1.4-.5l-1.6-.5a10.6 10.6 0 0 1-1.7-.6 5 5 0 0 1-1.4-1 4.7 4.7 0 0 1-1-1.6 6.3 6.3 0 0 1-.3-2.3 5.6 5.6 0 0 1 1.7-4 6.3 6.3 0 0 1 2.1-1.3 7.7 7.7 0 0 1 3-.5 10.1 10.1 0 0 1 1.7.1 9 9 0 0 1 1.6.4 9.5 9.5 0 0 1 1.4.7 6.2 6.2 0 0 1 1.2.9zM266.3 140v6.6h-4.5v-19.7h7a11.4 11.4 0 0 1 3.5.5 6.8 6.8 0 0 1 2.4 1.4 5.3 5.3 0 0 1 1.5 2 6.8 6.8 0 0 1 .4 2.5 7.5 7.5 0 0 1-.5 2.7 5.4 5.4 0 0 1-1.4 2.1 6.6 6.6 0 0 1-2.5 1.4 11.2 11.2 0 0 1-3.5.5zm0-3.5h2.4a2.9 2.9 0 0 0 3.4-3.2 3.7 3.7 0 0 0-.2-1.2 2.5 2.5 0 0 0-.7-1 2.8 2.8 0 0 0-1-.6 4.7 4.7 0 0 0-1.4-.2h-2.4zM295 146.6h-3.5a1.6 1.6 0 0 1-1-.3 1.4 1.4 0 0 1-.6-.7l-1.1-3.4h-7.5l-1.2 3.4a1.6 1.6 0 0 1-.5.7 1.5 1.5 0 0 1-1 .3H275l7.6-19.7h4.7zm-12.6-7.5h5.3l-1.8-5.4-.4-1.2-.5-1.5-.4 1.5-.4 1.2zM301.2 139.3v7.3h-4.6v-19.7h6.4a13.3 13.3 0 0 1 3.6.5 7 7 0 0 1 2.5 1.2 4.7 4.7 0 0 1 1.4 1.8 6 6 0 0 1 .4 2.4 6.3 6.3 0 0 1-.2 1.8 5.6 5.6 0 0 1-.8 1.5 5.8 5.8 0 0 1-1.2 1.3 6.6 6.6 0 0 1-1.7 1 4.9 4.9 0 0 1 .8.5 3.5 3.5 0 0 1 .7.8l4.2 6.9h-4.1a1.8 1.8 0 0 1-1.7-.9l-3.2-5.7a1.4 1.4 0 0 0-.6-.5 1.8 1.8 0 0 0-.8-.2zm0-3.1h1.8a4.7 4.7 0 0 0 1.6-.3 3 3 0 0 0 1-.6 2.6 2.6 0 0 0 .7-1 4 4 0 0 0 .2-1.2 2.5 2.5 0 0 0-.9-2 4 4 0 0 0-2.6-.7h-1.8zM319.1 134.9h.7a1.7 1.7 0 0 0 1.5-.6l4.4-6.5a1.9 1.9 0 0 1 .9-.7 3 3 0 0 1 1.1-.2h4l-5.8 8a3.5 3.5 0 0 1-.7.7 4.2 4.2 0 0 1-.7.5 3.5 3.5 0 0 1 1 .5 3.2 3.2 0 0 1 .8.9l5.9 9.1h-4a4.3 4.3 0 0 1-.8 0 1.5 1.5 0 0 1-.4-.2 1.4 1.4 0 0 1-.4-.2 2.8 2.8 0 0 1-.3-.4L322 139a1.4 1.4 0 0 0-.6-.6 2.5 2.5 0 0 0-1-.1H319v8.3h-4.5V127h4.5zM135 165a.7.7 0 0 1 .2 0 .6.6 0 0 1 .2.1l1.1 1.2a4.7 4.7 0 0 1-1.8 1.4 6.4 6.4 0 0 1-2.6.5 6.2 6.2 0 0 1-2.5-.5 5.3 5.3 0 0 1-1.8-1.2 5.6 5.6 0 0 1-1.2-2 7.2 7.2 0 0 1-.4-2.4 6.6 6.6 0 0 1 .5-2.5 5.8 5.8 0 0 1 3.3-3.2 6.8 6.8 0 0 1 2.5-.5 6.4 6.4 0 0 1 1.3.1 6.1 6.1 0 0 1 1.1.4 4.9 4.9 0 0 1 1 .5 4.4 4.4 0 0 1 .8.6l-1 1.3-.2.2a.6.6 0 0 1-.3 0 .7.7 0 0 1-.3 0l-.3-.1-.3-.2a2.7 2.7 0 0 0-.4-.2 5.7 5.7 0 0 0-.6-.2 4.4 4.4 0 0 0-.8 0 3.6 3.6 0 0 0-1.3.2 3 3 0 0 0-1.1.8 3.6 3.6 0 0 0-.7 1.2 4.7 4.7 0 0 0-.3 1.6 4.8 4.8 0 0 0 .3 1.6 3.6 3.6 0 0 0 .7 1.2 3 3 0 0 0 1 .8 3 3 0 0 0 1.2.2h.7a3.4 3.4 0 0 0 .6-.1 2.6 2.6 0 0 0 .5-.3 3.5 3.5 0 0 0 .5-.3 1 1 0 0 1 .2-.1.5.5 0 0 1 .2-.1zM145.5 156v2.1h-4.9v2.9h3.8v2h-3.8v3h5v2h-7.8v-12zM150 163.6v4.5H147V156h3.9a8.3 8.3 0 0 1 2.2.3 4 4 0 0 1 1.5.7 2.9 2.9 0 0 1 .9 1.1 3.7 3.7 0 0 1 .2 1.5 4 4 0 0 1-.1 1 3.6 3.6 0 0 1-.5 1 4 4 0 0 1-.8.9 3.8 3.8 0 0 1-1 .5 3 3 0 0 1 .6.4 2.6 2.6 0 0 1 .4.5l2.5 4.2h-2.5a1 1 0 0 1-1-.6l-2-3.5a.9.9 0 0 0-.3-.3 1 1 0 0 0-.5 0zm0-2h1a2.8 2.8 0 0 0 1 0 1.6 1.6 0 0 0 .7-.5 1.5 1.5 0 0 0 .3-.5 2.5 2.5 0 0 0 .1-.8 1.6 1.6 0 0 0-.5-1.2 2.4 2.4 0 0 0-1.6-.5h-1zM166.3 156v2.2H163v9.8h-2.7v-9.8h-3.4V156zM170.5 168h-2.8v-12h2.8zM180.5 156v2.1h-5v3h4.2v2.2h-4.1v4.7h-2.8v-12zM185 168h-2.8v-12h2.8zM195.3 165a.6.6 0 0 1 .2 0 .6.6 0 0 1 .2.1l1.1 1.2a4.6 4.6 0 0 1-1.8 1.4 6.4 6.4 0 0 1-2.6.5 6.2 6.2 0 0 1-2.5-.5 5.4 5.4 0 0 1-1.8-1.2 5.8 5.8 0 0 1-1.2-2 7.2 7.2 0 0 1-.4-2.4 6.4 6.4 0 0 1 .5-2.5 5.8 5.8 0 0 1 1.3-2 5.7 5.7 0 0 1 2-1.2 6.8 6.8 0 0 1 2.5-.5 6.5 6.5 0 0 1 1.3.1 6 6 0 0 1 1.1.4 4.9 4.9 0 0 1 1 .5 5 5 0 0 1 .8.6l-1 1.3a2.2 2.2 0 0 1-.1.2.6.6 0 0 1-.4 0 .6.6 0 0 1-.3 0l-.2-.1-.4-.2a2.7 2.7 0 0 0-.4-.2 4.5 4.5 0 0 0-.6-.2 4.3 4.3 0 0 0-.7 0 3.7 3.7 0 0 0-1.4.2 3 3 0 0 0-1.1.8 3.6 3.6 0 0 0-.7 1.2 4.7 4.7 0 0 0-.2 1.6 4.8 4.8 0 0 0 .2 1.6 3.6 3.6 0 0 0 .7 1.2 2.8 2.8 0 0 0 1 .8 3 3 0 0 0 1.2.2h.7a3.3 3.3 0 0 0 .6-.1 2.4 2.4 0 0 0 .5-.3 3 3 0 0 0 .5-.3 1 1 0 0 1 .2-.1.5.5 0 0 1 .2-.1zM209.3 168H207a1 1 0 0 1-.6-.1.9.9 0 0 1-.3-.4l-.7-2.1h-4.6l-.7 2a.8.8 0 0 1-.3.5 1 1 0 0 1-.6.2H197l4.7-12h2.8zm-7.8-4.5h3.3l-1-3.3-.3-.8-.3-.9-.3 1-.3.7zM217.6 156v2.2h-3.3v9.8h-2.8v-9.8H208V156zM221.8 168H219v-12h2.8zM236 162a6.5 6.5 0 0 1-.5 2.4 5.7 5.7 0 0 1-1.3 2 5.9 5.9 0 0 1-2 1.3 6.7 6.7 0 0 1-2.5.5 6.8 6.8 0 0 1-2.6-.5 5.9 5.9 0 0 1-2-1.3 5.7 5.7 0 0 1-1.3-2 6.8 6.8 0 0 1 0-4.8 5.7 5.7 0 0 1 3.3-3.3 6.6 6.6 0 0 1 2.5-.4 6.5 6.5 0 0 1 2.6.4 5.9 5.9 0 0 1 2 1.3 5.7 5.7 0 0 1 1.3 2 6.4 6.4 0 0 1 .4 2.4zm-3 0a5 5 0 0 0-.2-1.6 3.3 3.3 0 0 0-.6-1.2 3 3 0 0 0-1-.8 4 4 0 0 0-3 0 3 3 0 0 0-1 .8 3.5 3.5 0 0 0-.7 1.2 5.7 5.7 0 0 0 0 3.2 3.5 3.5 0 0 0 .7 1.2 2.8 2.8 0 0 0 1 .8 4 4 0 0 0 3 0 2.8 2.8 0 0 0 1-.8 3.3 3.3 0 0 0 .7-1.2 5 5 0 0 0 .2-1.6zM239 156a.6.6 0 0 1 .3.1.6.6 0 0 1 .2.1 2.6 2.6 0 0 1 .2.3l5.7 7.2v-.7-7h2.4v12h-1.4a1.5 1.5 0 0 1-.6-.1 1.2 1.2 0 0 1-.4-.4l-5.7-7.1V168h-2.4v-12h1.8zM261.7 156v2.2h-3.4v9.8h-2.8v-9.8H252V156zM265.6 163.6v4.5h-2.8V156h4a8.4 8.4 0 0 1 2.2.3 4.2 4.2 0 0 1 1.5.7 2.9 2.9 0 0 1 .8 1.1 3.9 3.9 0 0 1 .3 1.5 3.7 3.7 0 0 1-.2 1 3.5 3.5 0 0 1-.5 1 4 4 0 0 1-.7.9 3.8 3.8 0 0 1-1 .5 3 3 0 0 1 .5.4 2.3 2.3 0 0 1 .4.5l2.6 4.2h-2.5a1 1 0 0 1-1-.6l-2-3.5a.8.8 0 0 0-.3-.3 1 1 0 0 0-.5 0zm0-2h1.1a2.8 2.8 0 0 0 1 0 1.7 1.7 0 0 0 .7-.5 1.5 1.5 0 0 0 .4-.5 2.3 2.3 0 0 0 0-.8 1.5 1.5 0 0 0-.5-1.2 2.4 2.4 0 0 0-1.5-.5h-1.2zM285 168h-2.2a1 1 0 0 1-.6-.1 1 1 0 0 1-.3-.4l-.7-2.1h-4.6l-.7 2a1 1 0 0 1-.3.5 1 1 0 0 1-.6.2h-2.2l4.7-12h2.9zm-7.7-4.5h3.3l-1.1-3.3-.3-.8-.3-.9a8.7 8.7 0 0 1-.3 1l-.2.7zM289 168h-2.8v-12h2.8zM293 156a.5.5 0 0 1 .2.1.6.6 0 0 1 .2.1 2.6 2.6 0 0 1 .2.3l5.7 7.2v-.7-7h2.4v12h-1.4a1.4 1.4 0 0 1-.6-.1 1.1 1.1 0 0 1-.4-.4l-5.7-7.1V168h-2.4v-12h1.8zM306.8 168H304v-12h2.8zM310.8 156a.6.6 0 0 1 .2.1.7.7 0 0 1 .2.1 1.6 1.6 0 0 1 .2.3l5.7 7.2v-.7-7h2.4v12H318a1.4 1.4 0 0 1-.5-.1 1.2 1.2 0 0 1-.5-.4l-5.6-7.1v.6a5.5 5.5 0 0 1 0 .6v6.4H309v-12h1.8zM327.1 166a4.5 4.5 0 0 0 1-.1 4.3 4.3 0 0 0 .9-.3v-1.8h-1.2a.6.6 0 0 1-.4-.1.5.5 0 0 1-.2-.4v-1.5h4.3v5a5.2 5.2 0 0 1-1 .6 5.8 5.8 0 0 1-1 .4 7.4 7.4 0 0 1-1.3.3 11.6 11.6 0 0 1-1.4 0 6.3 6.3 0 0 1-2.4-.4 5.8 5.8 0 0 1-3.2-3.2 6.4 6.4 0 0 1-.5-2.5 6.6 6.6 0 0 1 .4-2.5 5.5 5.5 0 0 1 1.3-2 5.7 5.7 0 0 1 2-1.2 7 7 0 0 1 2.6-.4 7.9 7.9 0 0 1 1.5 0 6.1 6.1 0 0 1 1.2.4 5.4 5.4 0 0 1 1 .5 6 6 0 0 1 .8.7l-.8 1.2a.8.8 0 0 1-.3.3.6.6 0 0 1-.3 0 1 1 0 0 1-.6 0l-.6-.4a5 5 0 0 0-.6-.3 4.5 4.5 0 0 0-.6 0 6 6 0 0 0-.8 0 3.5 3.5 0 0 0-1.4.2 3.1 3.1 0 0 0-1 .8 3.5 3.5 0 0 0-.7 1.2 4.9 4.9 0 0 0-.3 1.5 5 5 0 0 0 .3 1.7 3.8 3.8 0 0 0 .7 1.3 3.1 3.1 0 0 0 1.1.8 3.7 3.7 0 0 0 1.5.2z"/></svg>